G04 #@! TF.GenerationSoftware,KiCad,Pcbnew,(5.1.7)-1*
G04 #@! TF.CreationDate,2021-12-05T21:20:24+09:00*
G04 #@! TF.ProjectId,DMD-10,444d442d-3130-42e6-9b69-6361645f7063,rev?*
G04 #@! TF.SameCoordinates,Original*
G04 #@! TF.FileFunction,Copper,L1,Top*
G04 #@! TF.FilePolarity,Positive*
%FSLAX46Y46*%
G04 Gerber Fmt 4.6, Leading zero omitted, Abs format (unit mm)*
G04 Created by KiCad (PCBNEW (5.1.7)-1) date 2021-12-05 21:20:24*
%MOMM*%
%LPD*%
G01*
G04 APERTURE LIST*
G04 #@! TA.AperFunction,ComponentPad*
%ADD10O,1.600000X1.600000*%
G04 #@! TD*
G04 #@! TA.AperFunction,ComponentPad*
%ADD11R,1.600000X1.600000*%
G04 #@! TD*
G04 #@! TA.AperFunction,ComponentPad*
%ADD12O,1.400000X1.400000*%
G04 #@! TD*
G04 #@! TA.AperFunction,ComponentPad*
%ADD13C,1.400000*%
G04 #@! TD*
G04 #@! TA.AperFunction,ComponentPad*
%ADD14O,1.717500X1.800000*%
G04 #@! TD*
G04 #@! TA.AperFunction,ComponentPad*
%ADD15R,1.717500X1.800000*%
G04 #@! TD*
G04 #@! TA.AperFunction,SMDPad,CuDef*
%ADD16R,5.700000X6.200000*%
G04 #@! TD*
G04 #@! TA.AperFunction,ComponentPad*
%ADD17C,3.800000*%
G04 #@! TD*
G04 #@! TA.AperFunction,ComponentPad*
%ADD18O,1.700000X1.700000*%
G04 #@! TD*
G04 #@! TA.AperFunction,ComponentPad*
%ADD19R,1.700000X1.700000*%
G04 #@! TD*
G04 #@! TA.AperFunction,ComponentPad*
%ADD20O,3.200000X3.200000*%
G04 #@! TD*
G04 #@! TA.AperFunction,ComponentPad*
%ADD21R,3.200000X3.200000*%
G04 #@! TD*
G04 #@! TA.AperFunction,Conductor*
%ADD22C,2.000000*%
G04 #@! TD*
G04 #@! TA.AperFunction,Conductor*
%ADD23C,1.500000*%
G04 #@! TD*
G04 #@! TA.AperFunction,Conductor*
%ADD24C,1.000000*%
G04 #@! TD*
G04 #@! TA.AperFunction,Conductor*
%ADD25C,0.800000*%
G04 #@! TD*
G04 #@! TA.AperFunction,Conductor*
%ADD26C,0.254000*%
G04 #@! TD*
G04 #@! TA.AperFunction,Conductor*
%ADD27C,0.100000*%
G04 #@! TD*
G04 APERTURE END LIST*
D10*
G04 #@! TO.P,U2,4*
G04 #@! TO.N,Net-(D1-Pad1)*
X99630000Y-108502000D03*
G04 #@! TO.P,U2,2*
G04 #@! TO.N,GNDD*
X107250000Y-105962000D03*
G04 #@! TO.P,U2,3*
G04 #@! TO.N,Net-(R4-Pad1)*
X99630000Y-105962000D03*
D11*
G04 #@! TO.P,U2,1*
G04 #@! TO.N,Net-(R2-Pad1)*
X107250000Y-108502000D03*
G04 #@! TD*
D10*
G04 #@! TO.P,U1,4*
G04 #@! TO.N,Net-(D1-Pad1)*
X99630000Y-85642000D03*
G04 #@! TO.P,U1,2*
G04 #@! TO.N,GNDD*
X107250000Y-83102000D03*
G04 #@! TO.P,U1,3*
G04 #@! TO.N,Net-(R3-Pad1)*
X99630000Y-83102000D03*
D11*
G04 #@! TO.P,U1,1*
G04 #@! TO.N,Net-(R1-Pad1)*
X107250000Y-85642000D03*
G04 #@! TD*
G04 #@! TO.P,RN1,1*
G04 #@! TO.N,GNDPWR*
X92518000Y-90722000D03*
D10*
G04 #@! TO.P,RN1,2*
G04 #@! TO.N,Net-(R3-Pad1)*
X92518000Y-93262000D03*
G04 #@! TO.P,RN1,3*
G04 #@! TO.N,Net-(Q1-Pad3)*
X92518000Y-95802000D03*
G04 #@! TO.P,RN1,4*
G04 #@! TO.N,Net-(R4-Pad1)*
X92518000Y-98342000D03*
G04 #@! TO.P,RN1,5*
G04 #@! TO.N,Net-(Q2-Pad3)*
X92518000Y-100882000D03*
G04 #@! TD*
G04 #@! TO.P,RN2,5*
G04 #@! TO.N,Net-(Q6-Pad1)*
X85406000Y-100882000D03*
G04 #@! TO.P,RN2,4*
G04 #@! TO.N,Net-(Q5-Pad1)*
X85406000Y-98342000D03*
G04 #@! TO.P,RN2,3*
G04 #@! TO.N,Net-(Q4-Pad1)*
X85406000Y-95802000D03*
G04 #@! TO.P,RN2,2*
G04 #@! TO.N,Net-(Q3-Pad1)*
X85406000Y-93262000D03*
D11*
G04 #@! TO.P,RN2,1*
G04 #@! TO.N,GNDPWR*
X85406000Y-90722000D03*
G04 #@! TD*
D12*
G04 #@! TO.P,R10,2*
G04 #@! TO.N,Net-(Q6-Pad1)*
X85406000Y-110534000D03*
D13*
G04 #@! TO.P,R10,1*
G04 #@! TO.N,Net-(Q2-Pad3)*
X87946000Y-110534000D03*
G04 #@! TD*
D12*
G04 #@! TO.P,R9,2*
G04 #@! TO.N,Net-(Q5-Pad1)*
X85406000Y-106978000D03*
D13*
G04 #@! TO.P,R9,1*
G04 #@! TO.N,Net-(Q2-Pad3)*
X87946000Y-106978000D03*
G04 #@! TD*
D12*
G04 #@! TO.P,R8,2*
G04 #@! TO.N,Net-(Q4-Pad1)*
X85406000Y-81070000D03*
D13*
G04 #@! TO.P,R8,1*
G04 #@! TO.N,Net-(Q1-Pad3)*
X87946000Y-81070000D03*
G04 #@! TD*
D12*
G04 #@! TO.P,R7,2*
G04 #@! TO.N,Net-(Q3-Pad1)*
X85406000Y-84626000D03*
D13*
G04 #@! TO.P,R7,1*
G04 #@! TO.N,Net-(Q1-Pad3)*
X87946000Y-84626000D03*
G04 #@! TD*
D12*
G04 #@! TO.P,R6,2*
G04 #@! TO.N,Net-(Q2-Pad1)*
X92772000Y-109645000D03*
D13*
G04 #@! TO.P,R6,1*
G04 #@! TO.N,GNDPWR*
X92772000Y-107105000D03*
G04 #@! TD*
D12*
G04 #@! TO.P,R5,2*
G04 #@! TO.N,Net-(Q1-Pad1)*
X92772000Y-84626000D03*
D13*
G04 #@! TO.P,R5,1*
G04 #@! TO.N,GNDPWR*
X92772000Y-82086000D03*
G04 #@! TD*
D12*
G04 #@! TO.P,R4,2*
G04 #@! TO.N,Net-(Q2-Pad1)*
X95058000Y-109645000D03*
D13*
G04 #@! TO.P,R4,1*
G04 #@! TO.N,Net-(R4-Pad1)*
X95058000Y-107105000D03*
G04 #@! TD*
D12*
G04 #@! TO.P,R3,2*
G04 #@! TO.N,Net-(Q1-Pad1)*
X95058000Y-84626000D03*
D13*
G04 #@! TO.P,R3,1*
G04 #@! TO.N,Net-(R3-Pad1)*
X95058000Y-82086000D03*
G04 #@! TD*
D12*
G04 #@! TO.P,R2,2*
G04 #@! TO.N,Net-(J5-Pad2)*
X100138000Y-102914000D03*
D13*
G04 #@! TO.P,R2,1*
G04 #@! TO.N,Net-(R2-Pad1)*
X102678000Y-102914000D03*
G04 #@! TD*
D12*
G04 #@! TO.P,R1,2*
G04 #@! TO.N,Net-(J5-Pad1)*
X100138000Y-88690000D03*
D13*
G04 #@! TO.P,R1,1*
G04 #@! TO.N,Net-(R1-Pad1)*
X102678000Y-88690000D03*
G04 #@! TD*
D14*
G04 #@! TO.P,Q6,3*
G04 #@! TO.N,GNDPWR*
X82112000Y-113328000D03*
G04 #@! TO.P,Q6,2*
G04 #@! TO.N,Net-(D3-Pad2)*
X79822000Y-113328000D03*
D15*
G04 #@! TO.P,Q6,1*
G04 #@! TO.N,Net-(Q6-Pad1)*
X77532000Y-113328000D03*
D16*
G04 #@! TO.P,Q6,4*
G04 #@! TO.N,Net-(D3-Pad2)*
X79822000Y-105894667D03*
G04 #@! TD*
D14*
G04 #@! TO.P,Q5,3*
G04 #@! TO.N,Net-(D1-Pad1)*
X74492000Y-113328000D03*
G04 #@! TO.P,Q5,2*
G04 #@! TO.N,Net-(D3-Pad2)*
X72202000Y-113328000D03*
D15*
G04 #@! TO.P,Q5,1*
G04 #@! TO.N,Net-(Q5-Pad1)*
X69912000Y-113328000D03*
D16*
G04 #@! TO.P,Q5,4*
G04 #@! TO.N,Net-(D3-Pad2)*
X72202000Y-105894667D03*
G04 #@! TD*
D14*
G04 #@! TO.P,Q4,3*
G04 #@! TO.N,GNDPWR*
X77524000Y-78276000D03*
G04 #@! TO.P,Q4,2*
G04 #@! TO.N,Net-(D1-Pad2)*
X79814000Y-78276000D03*
D15*
G04 #@! TO.P,Q4,1*
G04 #@! TO.N,Net-(Q4-Pad1)*
X82104000Y-78276000D03*
D16*
G04 #@! TO.P,Q4,4*
G04 #@! TO.N,Net-(D1-Pad2)*
X79814000Y-85709333D03*
G04 #@! TD*
D14*
G04 #@! TO.P,Q3,3*
G04 #@! TO.N,Net-(D1-Pad1)*
X69904000Y-78276000D03*
G04 #@! TO.P,Q3,2*
G04 #@! TO.N,Net-(D1-Pad2)*
X72194000Y-78276000D03*
D15*
G04 #@! TO.P,Q3,1*
G04 #@! TO.N,Net-(Q3-Pad1)*
X74484000Y-78276000D03*
D16*
G04 #@! TO.P,Q3,4*
G04 #@! TO.N,Net-(D1-Pad2)*
X72194000Y-85709333D03*
G04 #@! TD*
D14*
G04 #@! TO.P,Q2,3*
G04 #@! TO.N,Net-(Q2-Pad3)*
X92772000Y-112058000D03*
G04 #@! TO.P,Q2,2*
G04 #@! TO.N,Net-(D1-Pad1)*
X95062000Y-112058000D03*
D15*
G04 #@! TO.P,Q2,1*
G04 #@! TO.N,Net-(Q2-Pad1)*
X97352000Y-112058000D03*
D16*
G04 #@! TO.P,Q2,4*
G04 #@! TO.N,Net-(D1-Pad1)*
X95062000Y-119491333D03*
G04 #@! TD*
D14*
G04 #@! TO.P,Q1,3*
G04 #@! TO.N,Net-(Q1-Pad3)*
X97348000Y-79546000D03*
G04 #@! TO.P,Q1,2*
G04 #@! TO.N,Net-(D1-Pad1)*
X95058000Y-79546000D03*
D15*
G04 #@! TO.P,Q1,1*
G04 #@! TO.N,Net-(Q1-Pad1)*
X92768000Y-79546000D03*
D16*
G04 #@! TO.P,Q1,4*
G04 #@! TO.N,Net-(D1-Pad1)*
X95058000Y-72112667D03*
G04 #@! TD*
D17*
G04 #@! TO.P,J4,1*
G04 #@! TO.N,Net-(D3-Pad2)*
X62132000Y-112820000D03*
X57132000Y-112820000D03*
X52132000Y-112820000D03*
X62132000Y-119920000D03*
X57132000Y-119920000D03*
X52132000Y-119920000D03*
G04 #@! TD*
G04 #@! TO.P,J1,1*
G04 #@! TO.N,Net-(D1-Pad2)*
X62132000Y-71684000D03*
X57132000Y-71684000D03*
X52132000Y-71684000D03*
X62132000Y-78784000D03*
X57132000Y-78784000D03*
X52132000Y-78784000D03*
G04 #@! TD*
D18*
G04 #@! TO.P,J5,4*
G04 #@! TO.N,GNDD*
X97344000Y-99612000D03*
G04 #@! TO.P,J5,3*
X97344000Y-97072000D03*
G04 #@! TO.P,J5,2*
G04 #@! TO.N,Net-(J5-Pad2)*
X97344000Y-94532000D03*
D19*
G04 #@! TO.P,J5,1*
G04 #@! TO.N,Net-(J5-Pad1)*
X97344000Y-91992000D03*
G04 #@! TD*
D17*
G04 #@! TO.P,J3,1*
G04 #@! TO.N,GNDPWR*
X62132000Y-99104000D03*
X57132000Y-99104000D03*
X52132000Y-99104000D03*
X62132000Y-106204000D03*
X57132000Y-106204000D03*
X52132000Y-106204000D03*
G04 #@! TD*
G04 #@! TO.P,J2,1*
G04 #@! TO.N,Net-(D1-Pad1)*
X62132000Y-85400000D03*
X57132000Y-85400000D03*
X52132000Y-85400000D03*
X62132000Y-92500000D03*
X57132000Y-92500000D03*
X52132000Y-92500000D03*
G04 #@! TD*
D20*
G04 #@! TO.P,D4,2*
G04 #@! TO.N,GNDPWR*
X79818000Y-119170000D03*
D21*
G04 #@! TO.P,D4,1*
G04 #@! TO.N,Net-(D3-Pad2)*
X76008000Y-119170000D03*
G04 #@! TD*
D20*
G04 #@! TO.P,D3,2*
G04 #@! TO.N,Net-(D3-Pad2)*
X74738000Y-99104000D03*
D21*
G04 #@! TO.P,D3,1*
G04 #@! TO.N,Net-(D1-Pad1)*
X70928000Y-99104000D03*
G04 #@! TD*
D20*
G04 #@! TO.P,D2,2*
G04 #@! TO.N,GNDPWR*
X79818000Y-72434000D03*
D21*
G04 #@! TO.P,D2,1*
G04 #@! TO.N,Net-(D1-Pad2)*
X76008000Y-72434000D03*
G04 #@! TD*
D20*
G04 #@! TO.P,D1,2*
G04 #@! TO.N,Net-(D1-Pad2)*
X74738000Y-92500000D03*
D21*
G04 #@! TO.P,D1,1*
G04 #@! TO.N,Net-(D1-Pad1)*
X70928000Y-92500000D03*
G04 #@! TD*
D22*
G04 #@! TO.N,Net-(D1-Pad2)*
X72194000Y-85709333D02*
X72194000Y-88178000D01*
X74738000Y-90722000D02*
X74738000Y-92500000D01*
X72194000Y-88178000D02*
X74738000Y-90722000D01*
D23*
G04 #@! TO.N,Net-(D1-Pad1)*
X95058000Y-79546000D02*
X95058000Y-77006000D01*
X95058000Y-77006000D02*
X95058000Y-72112667D01*
X95062000Y-112058000D02*
X95062000Y-114602000D01*
X95062000Y-114602000D02*
X98610000Y-114602000D01*
X95062000Y-114602000D02*
X95062000Y-119491333D01*
X99630000Y-113582000D02*
X99630000Y-108502000D01*
X98610000Y-114602000D02*
X99630000Y-113582000D01*
X69904000Y-78276000D02*
X69904000Y-78284000D01*
D22*
X69904000Y-78284000D02*
X66610000Y-81578000D01*
X66610000Y-81578000D02*
X66610000Y-84626000D01*
X74492000Y-113328000D02*
X74492000Y-112320000D01*
X74492000Y-112320000D02*
X72706000Y-110534000D01*
X72706000Y-110534000D02*
X69150000Y-110534000D01*
X69150000Y-110534000D02*
X67626000Y-109010000D01*
X67626000Y-109010000D02*
X67626000Y-99866000D01*
X68388000Y-99104000D02*
X70928000Y-99104000D01*
X67626000Y-99866000D02*
X68388000Y-99104000D01*
D23*
X95058000Y-77006000D02*
X100138000Y-77006000D01*
X100138000Y-77006000D02*
X101662000Y-78530000D01*
X99630000Y-85642000D02*
X100646000Y-85642000D01*
X101662000Y-84626000D02*
X101662000Y-78530000D01*
X100646000Y-85642000D02*
X101662000Y-84626000D01*
D22*
G04 #@! TO.N,GNDPWR*
X79818000Y-72434000D02*
X79818000Y-73958000D01*
X77524000Y-76252000D02*
X77524000Y-78276000D01*
X79818000Y-73958000D02*
X77524000Y-76252000D01*
D24*
G04 #@! TO.N,Net-(D3-Pad2)*
X72202000Y-105894667D02*
X72202000Y-106982000D01*
D22*
X72202000Y-105894667D02*
X72202000Y-106474000D01*
X72202000Y-106474000D02*
X75754000Y-110026000D01*
D23*
G04 #@! TO.N,Net-(Q1-Pad3)*
X89470000Y-94786000D02*
X90486000Y-95802000D01*
X89470000Y-86150000D02*
X89470000Y-94786000D01*
X90486000Y-95802000D02*
X92518000Y-95802000D01*
X87946000Y-84626000D02*
X89470000Y-86150000D01*
X87946000Y-81070000D02*
X87946000Y-84626000D01*
G04 #@! TO.N,Net-(Q1-Pad1)*
X92772000Y-84626000D02*
X95058000Y-84626000D01*
X92768000Y-79546000D02*
X91502000Y-79546000D01*
X91502000Y-79546000D02*
X90486000Y-80562000D01*
X90486000Y-80562000D02*
X90486000Y-83610000D01*
X91502000Y-84626000D02*
X92772000Y-84626000D01*
X90486000Y-83610000D02*
X91502000Y-84626000D01*
G04 #@! TO.N,Net-(Q2-Pad3)*
X89470000Y-112058000D02*
X87946000Y-110534000D01*
X92772000Y-112058000D02*
X89470000Y-112058000D01*
G04 #@! TO.N,Net-(Q2-Pad1)*
X97352000Y-112058000D02*
X97352000Y-110796000D01*
X96201000Y-109645000D02*
X95058000Y-109645000D01*
X97352000Y-110796000D02*
X96201000Y-109645000D01*
X92772000Y-109645000D02*
X95058000Y-109645000D01*
G04 #@! TO.N,Net-(Q3-Pad1)*
X87438000Y-92246000D02*
X86422000Y-93262000D01*
X86422000Y-93262000D02*
X85406000Y-93262000D01*
X85406000Y-84626000D02*
X85406000Y-85642000D01*
X87438000Y-87674000D02*
X87438000Y-92246000D01*
X85406000Y-85642000D02*
X87438000Y-87674000D01*
G04 #@! TO.N,Net-(Q4-Pad1)*
X84898000Y-81070000D02*
X82104000Y-78276000D01*
X85406000Y-81070000D02*
X84898000Y-81070000D01*
G04 #@! TO.N,Net-(Q6-Pad1)*
X85406000Y-110534000D02*
X85406000Y-109518000D01*
X85406000Y-109518000D02*
X86168000Y-108756000D01*
X86168000Y-108756000D02*
X88962000Y-108756000D01*
X88962000Y-108756000D02*
X89724000Y-107994000D01*
X89724000Y-105200000D02*
X85406000Y-100882000D01*
X89724000Y-107994000D02*
X89724000Y-105200000D01*
D25*
G04 #@! TO.N,Net-(R1-Pad1)*
X105726000Y-85642000D02*
X102678000Y-88690000D01*
X107250000Y-85642000D02*
X105726000Y-85642000D01*
G04 #@! TO.N,Net-(R2-Pad1)*
X102678000Y-102914000D02*
X102678000Y-106470000D01*
X104710000Y-108502000D02*
X107250000Y-108502000D01*
X102678000Y-106470000D02*
X104710000Y-108502000D01*
D23*
G04 #@! TO.N,Net-(R3-Pad1)*
X98614000Y-82086000D02*
X99630000Y-83102000D01*
X97090000Y-82594000D02*
X96582000Y-82086000D01*
X97090000Y-86658000D02*
X97090000Y-82594000D01*
X96582000Y-82086000D02*
X98614000Y-82086000D01*
X95058000Y-82086000D02*
X96582000Y-82086000D01*
X92518000Y-93262000D02*
X93534000Y-93262000D01*
X93534000Y-93262000D02*
X95058000Y-91738000D01*
X95058000Y-88690000D02*
X97090000Y-86658000D01*
X95058000Y-91738000D02*
X95058000Y-88690000D01*
G04 #@! TO.N,Net-(R4-Pad1)*
X96201000Y-105962000D02*
X99630000Y-105962000D01*
X92518000Y-98342000D02*
X94042000Y-98342000D01*
X94042000Y-98342000D02*
X95058000Y-99358000D01*
X96201000Y-105962000D02*
X95058000Y-105962000D01*
X95058000Y-105962000D02*
X95058000Y-107105000D01*
X95058000Y-99358000D02*
X95058000Y-105962000D01*
D24*
G04 #@! TO.N,Net-(J5-Pad2)*
X97344000Y-94532000D02*
X98868000Y-94532000D01*
X100138000Y-95802000D02*
X100138000Y-102914000D01*
X98868000Y-94532000D02*
X100138000Y-95802000D01*
G04 #@! TO.N,Net-(J5-Pad1)*
X97344000Y-91992000D02*
X98868000Y-91992000D01*
X100138000Y-90722000D02*
X100138000Y-88690000D01*
X98868000Y-91992000D02*
X100138000Y-90722000D01*
G04 #@! TD*
D26*
G04 #@! TO.N,Net-(D1-Pad2)*
X85279000Y-75429394D02*
X84337394Y-76371000D01*
X81342000Y-76371000D01*
X81317224Y-76373440D01*
X81293399Y-76380667D01*
X81271443Y-76392403D01*
X81252197Y-76408197D01*
X80744197Y-76916197D01*
X80728403Y-76935443D01*
X80716667Y-76957399D01*
X80709440Y-76981224D01*
X80707000Y-77006000D01*
X80707000Y-77035936D01*
X80683975Y-77079011D01*
X80545750Y-77118163D01*
X80545750Y-77503000D01*
X80607178Y-77503000D01*
X80607178Y-79049000D01*
X80545750Y-79049000D01*
X80545750Y-79433837D01*
X80683975Y-79472989D01*
X80707000Y-79516064D01*
X80707000Y-82113083D01*
X80687000Y-82133083D01*
X80687000Y-84836333D01*
X80707000Y-84836333D01*
X80707000Y-86582333D01*
X80687000Y-86582333D01*
X80687000Y-89285583D01*
X80707000Y-89305583D01*
X80707000Y-94225394D01*
X79765394Y-95167000D01*
X74790606Y-95167000D01*
X73865000Y-94241394D01*
X73865000Y-93373000D01*
X75611000Y-93373000D01*
X75611000Y-94398723D01*
X75922112Y-94395575D01*
X76269168Y-94128143D01*
X76557382Y-93798143D01*
X76633551Y-93684108D01*
X76621795Y-93373000D01*
X75611000Y-93373000D01*
X73865000Y-93373000D01*
X73849000Y-93373000D01*
X73849000Y-91627000D01*
X73865000Y-91627000D01*
X75611000Y-91627000D01*
X76621795Y-91627000D01*
X76633551Y-91315892D01*
X76557382Y-91201857D01*
X76269168Y-90871857D01*
X75922112Y-90604425D01*
X75611000Y-90601277D01*
X75611000Y-91627000D01*
X73865000Y-91627000D01*
X73865000Y-90601277D01*
X73781726Y-90602120D01*
X72623939Y-89444333D01*
X73067002Y-89444333D01*
X73067002Y-89285585D01*
X73225750Y-89444333D01*
X75044000Y-89447405D01*
X75168482Y-89435145D01*
X75288180Y-89398835D01*
X75398494Y-89339870D01*
X75495185Y-89260518D01*
X75574537Y-89163827D01*
X75633502Y-89053513D01*
X75669812Y-88933815D01*
X75682072Y-88809333D01*
X76325928Y-88809333D01*
X76338188Y-88933815D01*
X76374498Y-89053513D01*
X76433463Y-89163827D01*
X76512815Y-89260518D01*
X76609506Y-89339870D01*
X76719820Y-89398835D01*
X76839518Y-89435145D01*
X76964000Y-89447405D01*
X78782250Y-89444333D01*
X78941000Y-89285583D01*
X78941000Y-86582333D01*
X76487750Y-86582333D01*
X76329000Y-86741083D01*
X76325928Y-88809333D01*
X75682072Y-88809333D01*
X75679000Y-86741083D01*
X75520250Y-86582333D01*
X73067000Y-86582333D01*
X73067000Y-86602333D01*
X71321000Y-86602333D01*
X71321000Y-86582333D01*
X71309000Y-86582333D01*
X71309000Y-84836333D01*
X71321000Y-84836333D01*
X71321000Y-82133083D01*
X73067000Y-82133083D01*
X73067000Y-84836333D01*
X75520250Y-84836333D01*
X75679000Y-84677583D01*
X75682072Y-82609333D01*
X76325928Y-82609333D01*
X76329000Y-84677583D01*
X76487750Y-84836333D01*
X78941000Y-84836333D01*
X78941000Y-82133083D01*
X78782250Y-81974333D01*
X76964000Y-81971261D01*
X76839518Y-81983521D01*
X76719820Y-82019831D01*
X76609506Y-82078796D01*
X76512815Y-82158148D01*
X76433463Y-82254839D01*
X76374498Y-82365153D01*
X76338188Y-82484851D01*
X76325928Y-82609333D01*
X75682072Y-82609333D01*
X75669812Y-82484851D01*
X75633502Y-82365153D01*
X75574537Y-82254839D01*
X75495185Y-82158148D01*
X75398494Y-82078796D01*
X75288180Y-82019831D01*
X75168482Y-81983521D01*
X75044000Y-81971261D01*
X73225750Y-81974333D01*
X73067000Y-82133083D01*
X71321000Y-82133083D01*
X71309000Y-82121083D01*
X71309000Y-79477245D01*
X71462250Y-79433837D01*
X71462250Y-79049000D01*
X71349006Y-79049000D01*
X71421851Y-78912716D01*
X71515342Y-78604517D01*
X71546911Y-78284001D01*
X71515342Y-77963484D01*
X71421851Y-77655286D01*
X71340453Y-77503000D01*
X71462250Y-77503000D01*
X71462250Y-77118163D01*
X72925750Y-77118163D01*
X72925750Y-77503000D01*
X72987178Y-77503000D01*
X72987178Y-79049000D01*
X72925750Y-79049000D01*
X72925750Y-79433837D01*
X73063975Y-79472989D01*
X73094713Y-79530494D01*
X73174065Y-79627185D01*
X73270756Y-79706537D01*
X73381070Y-79765502D01*
X73500768Y-79801812D01*
X73625250Y-79814072D01*
X75342750Y-79814072D01*
X75467232Y-79801812D01*
X75586930Y-79765502D01*
X75697244Y-79706537D01*
X75793935Y-79627185D01*
X75873287Y-79530494D01*
X75932252Y-79420180D01*
X75968562Y-79300482D01*
X75980822Y-79176000D01*
X75980822Y-78821223D01*
X76006149Y-78904715D01*
X76157970Y-79188752D01*
X76362287Y-79437714D01*
X76611249Y-79642031D01*
X76895286Y-79793852D01*
X77203485Y-79887343D01*
X77524000Y-79918911D01*
X77844516Y-79887343D01*
X78152715Y-79793852D01*
X78436752Y-79642031D01*
X78685714Y-79437714D01*
X78758193Y-79349398D01*
X78856413Y-79450481D01*
X78887544Y-79488987D01*
X79082250Y-79433837D01*
X79082250Y-79049000D01*
X78964730Y-79049000D01*
X79041852Y-78904715D01*
X79135343Y-78596516D01*
X79159000Y-78356322D01*
X79159000Y-76929238D01*
X80917318Y-75170920D01*
X80979714Y-75119714D01*
X81184031Y-74870752D01*
X81335852Y-74586715D01*
X81429343Y-74278516D01*
X81453000Y-74038322D01*
X81453000Y-74038320D01*
X81460911Y-73958000D01*
X81460360Y-73952407D01*
X81554038Y-73858729D01*
X81798631Y-73492669D01*
X81967110Y-73085925D01*
X82053000Y-72654128D01*
X82053000Y-72213872D01*
X81967110Y-71782075D01*
X81798631Y-71375331D01*
X81554038Y-71009271D01*
X81242729Y-70697962D01*
X80876669Y-70453369D01*
X80469925Y-70284890D01*
X80038128Y-70199000D01*
X79597872Y-70199000D01*
X79166075Y-70284890D01*
X78759331Y-70453369D01*
X78393271Y-70697962D01*
X78246011Y-70845222D01*
X78246072Y-70834000D01*
X78233812Y-70709518D01*
X78197502Y-70589820D01*
X78138537Y-70479506D01*
X78059185Y-70382815D01*
X77962494Y-70303463D01*
X77852180Y-70244498D01*
X77732482Y-70208188D01*
X77608000Y-70195928D01*
X77039750Y-70199000D01*
X76881000Y-70357750D01*
X76881000Y-71561000D01*
X76901000Y-71561000D01*
X76901000Y-73307000D01*
X76881000Y-73307000D01*
X76881000Y-74510250D01*
X76917256Y-74546506D01*
X76424687Y-75039075D01*
X76362286Y-75090286D01*
X76157969Y-75339249D01*
X76006148Y-75623286D01*
X75912657Y-75931485D01*
X75889000Y-76171678D01*
X75881089Y-76252000D01*
X75889000Y-76332320D01*
X75889000Y-77050903D01*
X75873287Y-77021506D01*
X75793935Y-76924815D01*
X75697244Y-76845463D01*
X75586930Y-76786498D01*
X75467232Y-76750188D01*
X75342750Y-76737928D01*
X73625250Y-76737928D01*
X73500768Y-76750188D01*
X73381070Y-76786498D01*
X73270756Y-76845463D01*
X73174065Y-76924815D01*
X73094713Y-77021506D01*
X73063975Y-77079011D01*
X72925750Y-77118163D01*
X71462250Y-77118163D01*
X71267544Y-77063013D01*
X71236413Y-77101519D01*
X71134633Y-77206266D01*
X71065713Y-77122287D01*
X70816752Y-76917970D01*
X70532714Y-76766149D01*
X70224516Y-76672658D01*
X69903999Y-76641089D01*
X69583483Y-76672658D01*
X69275284Y-76766149D01*
X68991247Y-76917970D01*
X68804676Y-77071085D01*
X65510687Y-80365075D01*
X65448286Y-80416286D01*
X65243969Y-80665249D01*
X65092148Y-80949286D01*
X64998657Y-81257485D01*
X64990382Y-81341507D01*
X64979598Y-81451000D01*
X49462000Y-81451000D01*
X49462000Y-80973386D01*
X51177223Y-80973386D01*
X51431703Y-81233112D01*
X51922957Y-81322674D01*
X52422245Y-81314676D01*
X52832297Y-81233112D01*
X53086777Y-80973386D01*
X56177223Y-80973386D01*
X56431703Y-81233112D01*
X56922957Y-81322674D01*
X57422245Y-81314676D01*
X57832297Y-81233112D01*
X58086777Y-80973386D01*
X61177223Y-80973386D01*
X61431703Y-81233112D01*
X61922957Y-81322674D01*
X62422245Y-81314676D01*
X62832297Y-81233112D01*
X63086777Y-80973386D01*
X62132000Y-80018608D01*
X61177223Y-80973386D01*
X58086777Y-80973386D01*
X57132000Y-80018608D01*
X56177223Y-80973386D01*
X53086777Y-80973386D01*
X52132000Y-80018608D01*
X51177223Y-80973386D01*
X49462000Y-80973386D01*
X49462000Y-78574957D01*
X49593326Y-78574957D01*
X49601324Y-79074245D01*
X49682888Y-79484297D01*
X49942614Y-79738777D01*
X50897392Y-78784000D01*
X53366608Y-78784000D01*
X54321386Y-79738777D01*
X54581112Y-79484297D01*
X54629784Y-79217326D01*
X54682888Y-79484297D01*
X54942614Y-79738777D01*
X55897392Y-78784000D01*
X58366608Y-78784000D01*
X59321386Y-79738777D01*
X59581112Y-79484297D01*
X59629784Y-79217326D01*
X59682888Y-79484297D01*
X59942614Y-79738777D01*
X60897392Y-78784000D01*
X63366608Y-78784000D01*
X64321386Y-79738777D01*
X64581112Y-79484297D01*
X64670674Y-78993043D01*
X64662676Y-78493755D01*
X64581112Y-78083703D01*
X64321386Y-77829223D01*
X63366608Y-78784000D01*
X60897392Y-78784000D01*
X59942614Y-77829223D01*
X59682888Y-78083703D01*
X59634216Y-78350674D01*
X59581112Y-78083703D01*
X59321386Y-77829223D01*
X58366608Y-78784000D01*
X55897392Y-78784000D01*
X54942614Y-77829223D01*
X54682888Y-78083703D01*
X54634216Y-78350674D01*
X54581112Y-78083703D01*
X54321386Y-77829223D01*
X53366608Y-78784000D01*
X50897392Y-78784000D01*
X49942614Y-77829223D01*
X49682888Y-78083703D01*
X49593326Y-78574957D01*
X49462000Y-78574957D01*
X49462000Y-76594614D01*
X51177223Y-76594614D01*
X52132000Y-77549392D01*
X53086777Y-76594614D01*
X56177223Y-76594614D01*
X57132000Y-77549392D01*
X58086777Y-76594614D01*
X61177223Y-76594614D01*
X62132000Y-77549392D01*
X63086777Y-76594614D01*
X62832297Y-76334888D01*
X62341043Y-76245326D01*
X61841755Y-76253324D01*
X61431703Y-76334888D01*
X61177223Y-76594614D01*
X58086777Y-76594614D01*
X57832297Y-76334888D01*
X57341043Y-76245326D01*
X56841755Y-76253324D01*
X56431703Y-76334888D01*
X56177223Y-76594614D01*
X53086777Y-76594614D01*
X52832297Y-76334888D01*
X52341043Y-76245326D01*
X51841755Y-76253324D01*
X51431703Y-76334888D01*
X51177223Y-76594614D01*
X49462000Y-76594614D01*
X49462000Y-73873386D01*
X51177223Y-73873386D01*
X51431703Y-74133112D01*
X51922957Y-74222674D01*
X52422245Y-74214676D01*
X52832297Y-74133112D01*
X53086777Y-73873386D01*
X56177223Y-73873386D01*
X56431703Y-74133112D01*
X56922957Y-74222674D01*
X57422245Y-74214676D01*
X57832297Y-74133112D01*
X58086777Y-73873386D01*
X61177223Y-73873386D01*
X61431703Y-74133112D01*
X61922957Y-74222674D01*
X62422245Y-74214676D01*
X62832297Y-74133112D01*
X63086777Y-73873386D01*
X62132000Y-72918608D01*
X61177223Y-73873386D01*
X58086777Y-73873386D01*
X57132000Y-72918608D01*
X56177223Y-73873386D01*
X53086777Y-73873386D01*
X52132000Y-72918608D01*
X51177223Y-73873386D01*
X49462000Y-73873386D01*
X49462000Y-71474957D01*
X49593326Y-71474957D01*
X49601324Y-71974245D01*
X49682888Y-72384297D01*
X49942614Y-72638777D01*
X50897392Y-71684000D01*
X53366608Y-71684000D01*
X54321386Y-72638777D01*
X54581112Y-72384297D01*
X54629784Y-72117326D01*
X54682888Y-72384297D01*
X54942614Y-72638777D01*
X55897392Y-71684000D01*
X58366608Y-71684000D01*
X59321386Y-72638777D01*
X59581112Y-72384297D01*
X59629784Y-72117326D01*
X59682888Y-72384297D01*
X59942614Y-72638777D01*
X60897392Y-71684000D01*
X63366608Y-71684000D01*
X64321386Y-72638777D01*
X64379464Y-72581872D01*
X66567000Y-72581872D01*
X66567000Y-73022128D01*
X66652890Y-73453925D01*
X66821369Y-73860669D01*
X67065962Y-74226729D01*
X67377271Y-74538038D01*
X67743331Y-74782631D01*
X68150075Y-74951110D01*
X68581872Y-75037000D01*
X69022128Y-75037000D01*
X69453925Y-74951110D01*
X69860669Y-74782631D01*
X70226729Y-74538038D01*
X70538038Y-74226729D01*
X70666815Y-74034000D01*
X73769928Y-74034000D01*
X73782188Y-74158482D01*
X73818498Y-74278180D01*
X73877463Y-74388494D01*
X73956815Y-74485185D01*
X74053506Y-74564537D01*
X74163820Y-74623502D01*
X74283518Y-74659812D01*
X74408000Y-74672072D01*
X74976250Y-74669000D01*
X75135000Y-74510250D01*
X75135000Y-73307000D01*
X73931750Y-73307000D01*
X73773000Y-73465750D01*
X73769928Y-74034000D01*
X70666815Y-74034000D01*
X70782631Y-73860669D01*
X70951110Y-73453925D01*
X71037000Y-73022128D01*
X71037000Y-72581872D01*
X70951110Y-72150075D01*
X70782631Y-71743331D01*
X70538038Y-71377271D01*
X70226729Y-71065962D01*
X69879573Y-70834000D01*
X73769928Y-70834000D01*
X73773000Y-71402250D01*
X73931750Y-71561000D01*
X75135000Y-71561000D01*
X75135000Y-70357750D01*
X74976250Y-70199000D01*
X74408000Y-70195928D01*
X74283518Y-70208188D01*
X74163820Y-70244498D01*
X74053506Y-70303463D01*
X73956815Y-70382815D01*
X73877463Y-70479506D01*
X73818498Y-70589820D01*
X73782188Y-70709518D01*
X73769928Y-70834000D01*
X69879573Y-70834000D01*
X69860669Y-70821369D01*
X69453925Y-70652890D01*
X69022128Y-70567000D01*
X68581872Y-70567000D01*
X68150075Y-70652890D01*
X67743331Y-70821369D01*
X67377271Y-71065962D01*
X67065962Y-71377271D01*
X66821369Y-71743331D01*
X66652890Y-72150075D01*
X66567000Y-72581872D01*
X64379464Y-72581872D01*
X64581112Y-72384297D01*
X64670674Y-71893043D01*
X64662676Y-71393755D01*
X64581112Y-70983703D01*
X64321386Y-70729223D01*
X63366608Y-71684000D01*
X60897392Y-71684000D01*
X59942614Y-70729223D01*
X59682888Y-70983703D01*
X59634216Y-71250674D01*
X59581112Y-70983703D01*
X59321386Y-70729223D01*
X58366608Y-71684000D01*
X55897392Y-71684000D01*
X54942614Y-70729223D01*
X54682888Y-70983703D01*
X54634216Y-71250674D01*
X54581112Y-70983703D01*
X54321386Y-70729223D01*
X53366608Y-71684000D01*
X50897392Y-71684000D01*
X49942614Y-70729223D01*
X49682888Y-70983703D01*
X49593326Y-71474957D01*
X49462000Y-71474957D01*
X49462000Y-69494614D01*
X51177223Y-69494614D01*
X52132000Y-70449392D01*
X53086777Y-69494614D01*
X56177223Y-69494614D01*
X57132000Y-70449392D01*
X58086777Y-69494614D01*
X61177223Y-69494614D01*
X62132000Y-70449392D01*
X63086777Y-69494614D01*
X62832297Y-69234888D01*
X62341043Y-69145326D01*
X61841755Y-69153324D01*
X61431703Y-69234888D01*
X61177223Y-69494614D01*
X58086777Y-69494614D01*
X57832297Y-69234888D01*
X57341043Y-69145326D01*
X56841755Y-69153324D01*
X56431703Y-69234888D01*
X56177223Y-69494614D01*
X53086777Y-69494614D01*
X52832297Y-69234888D01*
X52341043Y-69145326D01*
X51841755Y-69153324D01*
X51431703Y-69234888D01*
X51177223Y-69494614D01*
X49462000Y-69494614D01*
X49462000Y-68962000D01*
X85279000Y-68962000D01*
X85279000Y-75429394D01*
G04 #@! TA.AperFunction,Conductor*
D27*
G36*
X85279000Y-75429394D02*
G01*
X84337394Y-76371000D01*
X81342000Y-76371000D01*
X81317224Y-76373440D01*
X81293399Y-76380667D01*
X81271443Y-76392403D01*
X81252197Y-76408197D01*
X80744197Y-76916197D01*
X80728403Y-76935443D01*
X80716667Y-76957399D01*
X80709440Y-76981224D01*
X80707000Y-77006000D01*
X80707000Y-77035936D01*
X80683975Y-77079011D01*
X80545750Y-77118163D01*
X80545750Y-77503000D01*
X80607178Y-77503000D01*
X80607178Y-79049000D01*
X80545750Y-79049000D01*
X80545750Y-79433837D01*
X80683975Y-79472989D01*
X80707000Y-79516064D01*
X80707000Y-82113083D01*
X80687000Y-82133083D01*
X80687000Y-84836333D01*
X80707000Y-84836333D01*
X80707000Y-86582333D01*
X80687000Y-86582333D01*
X80687000Y-89285583D01*
X80707000Y-89305583D01*
X80707000Y-94225394D01*
X79765394Y-95167000D01*
X74790606Y-95167000D01*
X73865000Y-94241394D01*
X73865000Y-93373000D01*
X75611000Y-93373000D01*
X75611000Y-94398723D01*
X75922112Y-94395575D01*
X76269168Y-94128143D01*
X76557382Y-93798143D01*
X76633551Y-93684108D01*
X76621795Y-93373000D01*
X75611000Y-93373000D01*
X73865000Y-93373000D01*
X73849000Y-93373000D01*
X73849000Y-91627000D01*
X73865000Y-91627000D01*
X75611000Y-91627000D01*
X76621795Y-91627000D01*
X76633551Y-91315892D01*
X76557382Y-91201857D01*
X76269168Y-90871857D01*
X75922112Y-90604425D01*
X75611000Y-90601277D01*
X75611000Y-91627000D01*
X73865000Y-91627000D01*
X73865000Y-90601277D01*
X73781726Y-90602120D01*
X72623939Y-89444333D01*
X73067002Y-89444333D01*
X73067002Y-89285585D01*
X73225750Y-89444333D01*
X75044000Y-89447405D01*
X75168482Y-89435145D01*
X75288180Y-89398835D01*
X75398494Y-89339870D01*
X75495185Y-89260518D01*
X75574537Y-89163827D01*
X75633502Y-89053513D01*
X75669812Y-88933815D01*
X75682072Y-88809333D01*
X76325928Y-88809333D01*
X76338188Y-88933815D01*
X76374498Y-89053513D01*
X76433463Y-89163827D01*
X76512815Y-89260518D01*
X76609506Y-89339870D01*
X76719820Y-89398835D01*
X76839518Y-89435145D01*
X76964000Y-89447405D01*
X78782250Y-89444333D01*
X78941000Y-89285583D01*
X78941000Y-86582333D01*
X76487750Y-86582333D01*
X76329000Y-86741083D01*
X76325928Y-88809333D01*
X75682072Y-88809333D01*
X75679000Y-86741083D01*
X75520250Y-86582333D01*
X73067000Y-86582333D01*
X73067000Y-86602333D01*
X71321000Y-86602333D01*
X71321000Y-86582333D01*
X71309000Y-86582333D01*
X71309000Y-84836333D01*
X71321000Y-84836333D01*
X71321000Y-82133083D01*
X73067000Y-82133083D01*
X73067000Y-84836333D01*
X75520250Y-84836333D01*
X75679000Y-84677583D01*
X75682072Y-82609333D01*
X76325928Y-82609333D01*
X76329000Y-84677583D01*
X76487750Y-84836333D01*
X78941000Y-84836333D01*
X78941000Y-82133083D01*
X78782250Y-81974333D01*
X76964000Y-81971261D01*
X76839518Y-81983521D01*
X76719820Y-82019831D01*
X76609506Y-82078796D01*
X76512815Y-82158148D01*
X76433463Y-82254839D01*
X76374498Y-82365153D01*
X76338188Y-82484851D01*
X76325928Y-82609333D01*
X75682072Y-82609333D01*
X75669812Y-82484851D01*
X75633502Y-82365153D01*
X75574537Y-82254839D01*
X75495185Y-82158148D01*
X75398494Y-82078796D01*
X75288180Y-82019831D01*
X75168482Y-81983521D01*
X75044000Y-81971261D01*
X73225750Y-81974333D01*
X73067000Y-82133083D01*
X71321000Y-82133083D01*
X71309000Y-82121083D01*
X71309000Y-79477245D01*
X71462250Y-79433837D01*
X71462250Y-79049000D01*
X71349006Y-79049000D01*
X71421851Y-78912716D01*
X71515342Y-78604517D01*
X71546911Y-78284001D01*
X71515342Y-77963484D01*
X71421851Y-77655286D01*
X71340453Y-77503000D01*
X71462250Y-77503000D01*
X71462250Y-77118163D01*
X72925750Y-77118163D01*
X72925750Y-77503000D01*
X72987178Y-77503000D01*
X72987178Y-79049000D01*
X72925750Y-79049000D01*
X72925750Y-79433837D01*
X73063975Y-79472989D01*
X73094713Y-79530494D01*
X73174065Y-79627185D01*
X73270756Y-79706537D01*
X73381070Y-79765502D01*
X73500768Y-79801812D01*
X73625250Y-79814072D01*
X75342750Y-79814072D01*
X75467232Y-79801812D01*
X75586930Y-79765502D01*
X75697244Y-79706537D01*
X75793935Y-79627185D01*
X75873287Y-79530494D01*
X75932252Y-79420180D01*
X75968562Y-79300482D01*
X75980822Y-79176000D01*
X75980822Y-78821223D01*
X76006149Y-78904715D01*
X76157970Y-79188752D01*
X76362287Y-79437714D01*
X76611249Y-79642031D01*
X76895286Y-79793852D01*
X77203485Y-79887343D01*
X77524000Y-79918911D01*
X77844516Y-79887343D01*
X78152715Y-79793852D01*
X78436752Y-79642031D01*
X78685714Y-79437714D01*
X78758193Y-79349398D01*
X78856413Y-79450481D01*
X78887544Y-79488987D01*
X79082250Y-79433837D01*
X79082250Y-79049000D01*
X78964730Y-79049000D01*
X79041852Y-78904715D01*
X79135343Y-78596516D01*
X79159000Y-78356322D01*
X79159000Y-76929238D01*
X80917318Y-75170920D01*
X80979714Y-75119714D01*
X81184031Y-74870752D01*
X81335852Y-74586715D01*
X81429343Y-74278516D01*
X81453000Y-74038322D01*
X81453000Y-74038320D01*
X81460911Y-73958000D01*
X81460360Y-73952407D01*
X81554038Y-73858729D01*
X81798631Y-73492669D01*
X81967110Y-73085925D01*
X82053000Y-72654128D01*
X82053000Y-72213872D01*
X81967110Y-71782075D01*
X81798631Y-71375331D01*
X81554038Y-71009271D01*
X81242729Y-70697962D01*
X80876669Y-70453369D01*
X80469925Y-70284890D01*
X80038128Y-70199000D01*
X79597872Y-70199000D01*
X79166075Y-70284890D01*
X78759331Y-70453369D01*
X78393271Y-70697962D01*
X78246011Y-70845222D01*
X78246072Y-70834000D01*
X78233812Y-70709518D01*
X78197502Y-70589820D01*
X78138537Y-70479506D01*
X78059185Y-70382815D01*
X77962494Y-70303463D01*
X77852180Y-70244498D01*
X77732482Y-70208188D01*
X77608000Y-70195928D01*
X77039750Y-70199000D01*
X76881000Y-70357750D01*
X76881000Y-71561000D01*
X76901000Y-71561000D01*
X76901000Y-73307000D01*
X76881000Y-73307000D01*
X76881000Y-74510250D01*
X76917256Y-74546506D01*
X76424687Y-75039075D01*
X76362286Y-75090286D01*
X76157969Y-75339249D01*
X76006148Y-75623286D01*
X75912657Y-75931485D01*
X75889000Y-76171678D01*
X75881089Y-76252000D01*
X75889000Y-76332320D01*
X75889000Y-77050903D01*
X75873287Y-77021506D01*
X75793935Y-76924815D01*
X75697244Y-76845463D01*
X75586930Y-76786498D01*
X75467232Y-76750188D01*
X75342750Y-76737928D01*
X73625250Y-76737928D01*
X73500768Y-76750188D01*
X73381070Y-76786498D01*
X73270756Y-76845463D01*
X73174065Y-76924815D01*
X73094713Y-77021506D01*
X73063975Y-77079011D01*
X72925750Y-77118163D01*
X71462250Y-77118163D01*
X71267544Y-77063013D01*
X71236413Y-77101519D01*
X71134633Y-77206266D01*
X71065713Y-77122287D01*
X70816752Y-76917970D01*
X70532714Y-76766149D01*
X70224516Y-76672658D01*
X69903999Y-76641089D01*
X69583483Y-76672658D01*
X69275284Y-76766149D01*
X68991247Y-76917970D01*
X68804676Y-77071085D01*
X65510687Y-80365075D01*
X65448286Y-80416286D01*
X65243969Y-80665249D01*
X65092148Y-80949286D01*
X64998657Y-81257485D01*
X64990382Y-81341507D01*
X64979598Y-81451000D01*
X49462000Y-81451000D01*
X49462000Y-80973386D01*
X51177223Y-80973386D01*
X51431703Y-81233112D01*
X51922957Y-81322674D01*
X52422245Y-81314676D01*
X52832297Y-81233112D01*
X53086777Y-80973386D01*
X56177223Y-80973386D01*
X56431703Y-81233112D01*
X56922957Y-81322674D01*
X57422245Y-81314676D01*
X57832297Y-81233112D01*
X58086777Y-80973386D01*
X61177223Y-80973386D01*
X61431703Y-81233112D01*
X61922957Y-81322674D01*
X62422245Y-81314676D01*
X62832297Y-81233112D01*
X63086777Y-80973386D01*
X62132000Y-80018608D01*
X61177223Y-80973386D01*
X58086777Y-80973386D01*
X57132000Y-80018608D01*
X56177223Y-80973386D01*
X53086777Y-80973386D01*
X52132000Y-80018608D01*
X51177223Y-80973386D01*
X49462000Y-80973386D01*
X49462000Y-78574957D01*
X49593326Y-78574957D01*
X49601324Y-79074245D01*
X49682888Y-79484297D01*
X49942614Y-79738777D01*
X50897392Y-78784000D01*
X53366608Y-78784000D01*
X54321386Y-79738777D01*
X54581112Y-79484297D01*
X54629784Y-79217326D01*
X54682888Y-79484297D01*
X54942614Y-79738777D01*
X55897392Y-78784000D01*
X58366608Y-78784000D01*
X59321386Y-79738777D01*
X59581112Y-79484297D01*
X59629784Y-79217326D01*
X59682888Y-79484297D01*
X59942614Y-79738777D01*
X60897392Y-78784000D01*
X63366608Y-78784000D01*
X64321386Y-79738777D01*
X64581112Y-79484297D01*
X64670674Y-78993043D01*
X64662676Y-78493755D01*
X64581112Y-78083703D01*
X64321386Y-77829223D01*
X63366608Y-78784000D01*
X60897392Y-78784000D01*
X59942614Y-77829223D01*
X59682888Y-78083703D01*
X59634216Y-78350674D01*
X59581112Y-78083703D01*
X59321386Y-77829223D01*
X58366608Y-78784000D01*
X55897392Y-78784000D01*
X54942614Y-77829223D01*
X54682888Y-78083703D01*
X54634216Y-78350674D01*
X54581112Y-78083703D01*
X54321386Y-77829223D01*
X53366608Y-78784000D01*
X50897392Y-78784000D01*
X49942614Y-77829223D01*
X49682888Y-78083703D01*
X49593326Y-78574957D01*
X49462000Y-78574957D01*
X49462000Y-76594614D01*
X51177223Y-76594614D01*
X52132000Y-77549392D01*
X53086777Y-76594614D01*
X56177223Y-76594614D01*
X57132000Y-77549392D01*
X58086777Y-76594614D01*
X61177223Y-76594614D01*
X62132000Y-77549392D01*
X63086777Y-76594614D01*
X62832297Y-76334888D01*
X62341043Y-76245326D01*
X61841755Y-76253324D01*
X61431703Y-76334888D01*
X61177223Y-76594614D01*
X58086777Y-76594614D01*
X57832297Y-76334888D01*
X57341043Y-76245326D01*
X56841755Y-76253324D01*
X56431703Y-76334888D01*
X56177223Y-76594614D01*
X53086777Y-76594614D01*
X52832297Y-76334888D01*
X52341043Y-76245326D01*
X51841755Y-76253324D01*
X51431703Y-76334888D01*
X51177223Y-76594614D01*
X49462000Y-76594614D01*
X49462000Y-73873386D01*
X51177223Y-73873386D01*
X51431703Y-74133112D01*
X51922957Y-74222674D01*
X52422245Y-74214676D01*
X52832297Y-74133112D01*
X53086777Y-73873386D01*
X56177223Y-73873386D01*
X56431703Y-74133112D01*
X56922957Y-74222674D01*
X57422245Y-74214676D01*
X57832297Y-74133112D01*
X58086777Y-73873386D01*
X61177223Y-73873386D01*
X61431703Y-74133112D01*
X61922957Y-74222674D01*
X62422245Y-74214676D01*
X62832297Y-74133112D01*
X63086777Y-73873386D01*
X62132000Y-72918608D01*
X61177223Y-73873386D01*
X58086777Y-73873386D01*
X57132000Y-72918608D01*
X56177223Y-73873386D01*
X53086777Y-73873386D01*
X52132000Y-72918608D01*
X51177223Y-73873386D01*
X49462000Y-73873386D01*
X49462000Y-71474957D01*
X49593326Y-71474957D01*
X49601324Y-71974245D01*
X49682888Y-72384297D01*
X49942614Y-72638777D01*
X50897392Y-71684000D01*
X53366608Y-71684000D01*
X54321386Y-72638777D01*
X54581112Y-72384297D01*
X54629784Y-72117326D01*
X54682888Y-72384297D01*
X54942614Y-72638777D01*
X55897392Y-71684000D01*
X58366608Y-71684000D01*
X59321386Y-72638777D01*
X59581112Y-72384297D01*
X59629784Y-72117326D01*
X59682888Y-72384297D01*
X59942614Y-72638777D01*
X60897392Y-71684000D01*
X63366608Y-71684000D01*
X64321386Y-72638777D01*
X64379464Y-72581872D01*
X66567000Y-72581872D01*
X66567000Y-73022128D01*
X66652890Y-73453925D01*
X66821369Y-73860669D01*
X67065962Y-74226729D01*
X67377271Y-74538038D01*
X67743331Y-74782631D01*
X68150075Y-74951110D01*
X68581872Y-75037000D01*
X69022128Y-75037000D01*
X69453925Y-74951110D01*
X69860669Y-74782631D01*
X70226729Y-74538038D01*
X70538038Y-74226729D01*
X70666815Y-74034000D01*
X73769928Y-74034000D01*
X73782188Y-74158482D01*
X73818498Y-74278180D01*
X73877463Y-74388494D01*
X73956815Y-74485185D01*
X74053506Y-74564537D01*
X74163820Y-74623502D01*
X74283518Y-74659812D01*
X74408000Y-74672072D01*
X74976250Y-74669000D01*
X75135000Y-74510250D01*
X75135000Y-73307000D01*
X73931750Y-73307000D01*
X73773000Y-73465750D01*
X73769928Y-74034000D01*
X70666815Y-74034000D01*
X70782631Y-73860669D01*
X70951110Y-73453925D01*
X71037000Y-73022128D01*
X71037000Y-72581872D01*
X70951110Y-72150075D01*
X70782631Y-71743331D01*
X70538038Y-71377271D01*
X70226729Y-71065962D01*
X69879573Y-70834000D01*
X73769928Y-70834000D01*
X73773000Y-71402250D01*
X73931750Y-71561000D01*
X75135000Y-71561000D01*
X75135000Y-70357750D01*
X74976250Y-70199000D01*
X74408000Y-70195928D01*
X74283518Y-70208188D01*
X74163820Y-70244498D01*
X74053506Y-70303463D01*
X73956815Y-70382815D01*
X73877463Y-70479506D01*
X73818498Y-70589820D01*
X73782188Y-70709518D01*
X73769928Y-70834000D01*
X69879573Y-70834000D01*
X69860669Y-70821369D01*
X69453925Y-70652890D01*
X69022128Y-70567000D01*
X68581872Y-70567000D01*
X68150075Y-70652890D01*
X67743331Y-70821369D01*
X67377271Y-71065962D01*
X67065962Y-71377271D01*
X66821369Y-71743331D01*
X66652890Y-72150075D01*
X66567000Y-72581872D01*
X64379464Y-72581872D01*
X64581112Y-72384297D01*
X64670674Y-71893043D01*
X64662676Y-71393755D01*
X64581112Y-70983703D01*
X64321386Y-70729223D01*
X63366608Y-71684000D01*
X60897392Y-71684000D01*
X59942614Y-70729223D01*
X59682888Y-70983703D01*
X59634216Y-71250674D01*
X59581112Y-70983703D01*
X59321386Y-70729223D01*
X58366608Y-71684000D01*
X55897392Y-71684000D01*
X54942614Y-70729223D01*
X54682888Y-70983703D01*
X54634216Y-71250674D01*
X54581112Y-70983703D01*
X54321386Y-70729223D01*
X53366608Y-71684000D01*
X50897392Y-71684000D01*
X49942614Y-70729223D01*
X49682888Y-70983703D01*
X49593326Y-71474957D01*
X49462000Y-71474957D01*
X49462000Y-69494614D01*
X51177223Y-69494614D01*
X52132000Y-70449392D01*
X53086777Y-69494614D01*
X56177223Y-69494614D01*
X57132000Y-70449392D01*
X58086777Y-69494614D01*
X61177223Y-69494614D01*
X62132000Y-70449392D01*
X63086777Y-69494614D01*
X62832297Y-69234888D01*
X62341043Y-69145326D01*
X61841755Y-69153324D01*
X61431703Y-69234888D01*
X61177223Y-69494614D01*
X58086777Y-69494614D01*
X57832297Y-69234888D01*
X57341043Y-69145326D01*
X56841755Y-69153324D01*
X56431703Y-69234888D01*
X56177223Y-69494614D01*
X53086777Y-69494614D01*
X52832297Y-69234888D01*
X52341043Y-69145326D01*
X51841755Y-69153324D01*
X51431703Y-69234888D01*
X51177223Y-69494614D01*
X49462000Y-69494614D01*
X49462000Y-68962000D01*
X85279000Y-68962000D01*
X85279000Y-75429394D01*
G37*
G04 #@! TD.AperFunction*
G04 #@! TD*
D26*
G04 #@! TO.N,Net-(D1-Pad1)*
X68007000Y-83662606D02*
X68007000Y-88690000D01*
X68009440Y-88714776D01*
X68016667Y-88738601D01*
X68028403Y-88760557D01*
X68044197Y-88779803D01*
X69060197Y-89795803D01*
X69079443Y-89811597D01*
X69101399Y-89823333D01*
X69125224Y-89830560D01*
X69150000Y-89833000D01*
X70621394Y-89833000D01*
X71563000Y-90774606D01*
X71563000Y-98797394D01*
X70621394Y-99739000D01*
X68186606Y-99739000D01*
X67245000Y-98797394D01*
X67245000Y-97504000D01*
X68689928Y-97504000D01*
X68693000Y-98072250D01*
X68851750Y-98231000D01*
X70055000Y-98231000D01*
X70055000Y-97027750D01*
X69896250Y-96869000D01*
X69328000Y-96865928D01*
X69203518Y-96878188D01*
X69083820Y-96914498D01*
X68973506Y-96973463D01*
X68876815Y-97052815D01*
X68797463Y-97149506D01*
X68738498Y-97259820D01*
X68702188Y-97379518D01*
X68689928Y-97504000D01*
X67245000Y-97504000D01*
X67245000Y-96310000D01*
X67242560Y-96285224D01*
X67235333Y-96261399D01*
X67223597Y-96239443D01*
X67207803Y-96220197D01*
X66191803Y-95204197D01*
X66172557Y-95188403D01*
X66150601Y-95176667D01*
X66126776Y-95169440D01*
X66102000Y-95167000D01*
X49462000Y-95167000D01*
X49462000Y-94689386D01*
X51177223Y-94689386D01*
X51431703Y-94949112D01*
X51922957Y-95038674D01*
X52422245Y-95030676D01*
X52832297Y-94949112D01*
X53086777Y-94689386D01*
X56177223Y-94689386D01*
X56431703Y-94949112D01*
X56922957Y-95038674D01*
X57422245Y-95030676D01*
X57832297Y-94949112D01*
X58086777Y-94689386D01*
X61177223Y-94689386D01*
X61431703Y-94949112D01*
X61922957Y-95038674D01*
X62422245Y-95030676D01*
X62832297Y-94949112D01*
X63086777Y-94689386D01*
X62497392Y-94100000D01*
X68689928Y-94100000D01*
X68702188Y-94224482D01*
X68738498Y-94344180D01*
X68797463Y-94454494D01*
X68876815Y-94551185D01*
X68973506Y-94630537D01*
X69083820Y-94689502D01*
X69203518Y-94725812D01*
X69328000Y-94738072D01*
X69896250Y-94735000D01*
X70055000Y-94576250D01*
X70055000Y-93373000D01*
X68851750Y-93373000D01*
X68693000Y-93531750D01*
X68689928Y-94100000D01*
X62497392Y-94100000D01*
X62132000Y-93734608D01*
X61177223Y-94689386D01*
X58086777Y-94689386D01*
X57132000Y-93734608D01*
X56177223Y-94689386D01*
X53086777Y-94689386D01*
X52132000Y-93734608D01*
X51177223Y-94689386D01*
X49462000Y-94689386D01*
X49462000Y-92290957D01*
X49593326Y-92290957D01*
X49601324Y-92790245D01*
X49682888Y-93200297D01*
X49942614Y-93454777D01*
X50897392Y-92500000D01*
X53366608Y-92500000D01*
X54321386Y-93454777D01*
X54581112Y-93200297D01*
X54629784Y-92933326D01*
X54682888Y-93200297D01*
X54942614Y-93454777D01*
X55897392Y-92500000D01*
X58366608Y-92500000D01*
X59321386Y-93454777D01*
X59581112Y-93200297D01*
X59629784Y-92933326D01*
X59682888Y-93200297D01*
X59942614Y-93454777D01*
X60897392Y-92500000D01*
X63366608Y-92500000D01*
X64321386Y-93454777D01*
X64581112Y-93200297D01*
X64670674Y-92709043D01*
X64662676Y-92209755D01*
X64581112Y-91799703D01*
X64321386Y-91545223D01*
X63366608Y-92500000D01*
X60897392Y-92500000D01*
X59942614Y-91545223D01*
X59682888Y-91799703D01*
X59634216Y-92066674D01*
X59581112Y-91799703D01*
X59321386Y-91545223D01*
X58366608Y-92500000D01*
X55897392Y-92500000D01*
X54942614Y-91545223D01*
X54682888Y-91799703D01*
X54634216Y-92066674D01*
X54581112Y-91799703D01*
X54321386Y-91545223D01*
X53366608Y-92500000D01*
X50897392Y-92500000D01*
X49942614Y-91545223D01*
X49682888Y-91799703D01*
X49593326Y-92290957D01*
X49462000Y-92290957D01*
X49462000Y-90310614D01*
X51177223Y-90310614D01*
X52132000Y-91265392D01*
X53086777Y-90310614D01*
X56177223Y-90310614D01*
X57132000Y-91265392D01*
X58086777Y-90310614D01*
X61177223Y-90310614D01*
X62132000Y-91265392D01*
X62497391Y-90900000D01*
X68689928Y-90900000D01*
X68693000Y-91468250D01*
X68851750Y-91627000D01*
X70055000Y-91627000D01*
X70055000Y-90423750D01*
X69896250Y-90265000D01*
X69328000Y-90261928D01*
X69203518Y-90274188D01*
X69083820Y-90310498D01*
X68973506Y-90369463D01*
X68876815Y-90448815D01*
X68797463Y-90545506D01*
X68738498Y-90655820D01*
X68702188Y-90775518D01*
X68689928Y-90900000D01*
X62497391Y-90900000D01*
X63086777Y-90310614D01*
X62832297Y-90050888D01*
X62341043Y-89961326D01*
X61841755Y-89969324D01*
X61431703Y-90050888D01*
X61177223Y-90310614D01*
X58086777Y-90310614D01*
X57832297Y-90050888D01*
X57341043Y-89961326D01*
X56841755Y-89969324D01*
X56431703Y-90050888D01*
X56177223Y-90310614D01*
X53086777Y-90310614D01*
X52832297Y-90050888D01*
X52341043Y-89961326D01*
X51841755Y-89969324D01*
X51431703Y-90050888D01*
X51177223Y-90310614D01*
X49462000Y-90310614D01*
X49462000Y-87589386D01*
X51177223Y-87589386D01*
X51431703Y-87849112D01*
X51922957Y-87938674D01*
X52422245Y-87930676D01*
X52832297Y-87849112D01*
X53086777Y-87589386D01*
X56177223Y-87589386D01*
X56431703Y-87849112D01*
X56922957Y-87938674D01*
X57422245Y-87930676D01*
X57832297Y-87849112D01*
X58086777Y-87589386D01*
X61177223Y-87589386D01*
X61431703Y-87849112D01*
X61922957Y-87938674D01*
X62422245Y-87930676D01*
X62832297Y-87849112D01*
X63086777Y-87589386D01*
X62132000Y-86634608D01*
X61177223Y-87589386D01*
X58086777Y-87589386D01*
X57132000Y-86634608D01*
X56177223Y-87589386D01*
X53086777Y-87589386D01*
X52132000Y-86634608D01*
X51177223Y-87589386D01*
X49462000Y-87589386D01*
X49462000Y-85190957D01*
X49593326Y-85190957D01*
X49601324Y-85690245D01*
X49682888Y-86100297D01*
X49942614Y-86354777D01*
X50897392Y-85400000D01*
X53366608Y-85400000D01*
X54321386Y-86354777D01*
X54581112Y-86100297D01*
X54629784Y-85833326D01*
X54682888Y-86100297D01*
X54942614Y-86354777D01*
X55897392Y-85400000D01*
X58366608Y-85400000D01*
X59321386Y-86354777D01*
X59581112Y-86100297D01*
X59629784Y-85833326D01*
X59682888Y-86100297D01*
X59942614Y-86354777D01*
X60897392Y-85400000D01*
X63366608Y-85400000D01*
X64321386Y-86354777D01*
X64581112Y-86100297D01*
X64670674Y-85609043D01*
X64662676Y-85109755D01*
X64581112Y-84699703D01*
X64321386Y-84445223D01*
X63366608Y-85400000D01*
X60897392Y-85400000D01*
X59942614Y-84445223D01*
X59682888Y-84699703D01*
X59634216Y-84966674D01*
X59581112Y-84699703D01*
X59321386Y-84445223D01*
X58366608Y-85400000D01*
X55897392Y-85400000D01*
X54942614Y-84445223D01*
X54682888Y-84699703D01*
X54634216Y-84966674D01*
X54581112Y-84699703D01*
X54321386Y-84445223D01*
X53366608Y-85400000D01*
X50897392Y-85400000D01*
X49942614Y-84445223D01*
X49682888Y-84699703D01*
X49593326Y-85190957D01*
X49462000Y-85190957D01*
X49462000Y-83210614D01*
X51177223Y-83210614D01*
X52132000Y-84165392D01*
X53086777Y-83210614D01*
X56177223Y-83210614D01*
X57132000Y-84165392D01*
X58086777Y-83210614D01*
X61177223Y-83210614D01*
X62132000Y-84165392D01*
X63086777Y-83210614D01*
X62832297Y-82950888D01*
X62341043Y-82861326D01*
X61841755Y-82869324D01*
X61431703Y-82950888D01*
X61177223Y-83210614D01*
X58086777Y-83210614D01*
X57832297Y-82950888D01*
X57341043Y-82861326D01*
X56841755Y-82869324D01*
X56431703Y-82950888D01*
X56177223Y-83210614D01*
X53086777Y-83210614D01*
X52832297Y-82950888D01*
X52341043Y-82861326D01*
X51841755Y-82869324D01*
X51431703Y-82950888D01*
X51177223Y-83210614D01*
X49462000Y-83210614D01*
X49462000Y-82721000D01*
X67065394Y-82721000D01*
X68007000Y-83662606D01*
G04 #@! TA.AperFunction,Conductor*
D27*
G36*
X68007000Y-83662606D02*
G01*
X68007000Y-88690000D01*
X68009440Y-88714776D01*
X68016667Y-88738601D01*
X68028403Y-88760557D01*
X68044197Y-88779803D01*
X69060197Y-89795803D01*
X69079443Y-89811597D01*
X69101399Y-89823333D01*
X69125224Y-89830560D01*
X69150000Y-89833000D01*
X70621394Y-89833000D01*
X71563000Y-90774606D01*
X71563000Y-98797394D01*
X70621394Y-99739000D01*
X68186606Y-99739000D01*
X67245000Y-98797394D01*
X67245000Y-97504000D01*
X68689928Y-97504000D01*
X68693000Y-98072250D01*
X68851750Y-98231000D01*
X70055000Y-98231000D01*
X70055000Y-97027750D01*
X69896250Y-96869000D01*
X69328000Y-96865928D01*
X69203518Y-96878188D01*
X69083820Y-96914498D01*
X68973506Y-96973463D01*
X68876815Y-97052815D01*
X68797463Y-97149506D01*
X68738498Y-97259820D01*
X68702188Y-97379518D01*
X68689928Y-97504000D01*
X67245000Y-97504000D01*
X67245000Y-96310000D01*
X67242560Y-96285224D01*
X67235333Y-96261399D01*
X67223597Y-96239443D01*
X67207803Y-96220197D01*
X66191803Y-95204197D01*
X66172557Y-95188403D01*
X66150601Y-95176667D01*
X66126776Y-95169440D01*
X66102000Y-95167000D01*
X49462000Y-95167000D01*
X49462000Y-94689386D01*
X51177223Y-94689386D01*
X51431703Y-94949112D01*
X51922957Y-95038674D01*
X52422245Y-95030676D01*
X52832297Y-94949112D01*
X53086777Y-94689386D01*
X56177223Y-94689386D01*
X56431703Y-94949112D01*
X56922957Y-95038674D01*
X57422245Y-95030676D01*
X57832297Y-94949112D01*
X58086777Y-94689386D01*
X61177223Y-94689386D01*
X61431703Y-94949112D01*
X61922957Y-95038674D01*
X62422245Y-95030676D01*
X62832297Y-94949112D01*
X63086777Y-94689386D01*
X62497392Y-94100000D01*
X68689928Y-94100000D01*
X68702188Y-94224482D01*
X68738498Y-94344180D01*
X68797463Y-94454494D01*
X68876815Y-94551185D01*
X68973506Y-94630537D01*
X69083820Y-94689502D01*
X69203518Y-94725812D01*
X69328000Y-94738072D01*
X69896250Y-94735000D01*
X70055000Y-94576250D01*
X70055000Y-93373000D01*
X68851750Y-93373000D01*
X68693000Y-93531750D01*
X68689928Y-94100000D01*
X62497392Y-94100000D01*
X62132000Y-93734608D01*
X61177223Y-94689386D01*
X58086777Y-94689386D01*
X57132000Y-93734608D01*
X56177223Y-94689386D01*
X53086777Y-94689386D01*
X52132000Y-93734608D01*
X51177223Y-94689386D01*
X49462000Y-94689386D01*
X49462000Y-92290957D01*
X49593326Y-92290957D01*
X49601324Y-92790245D01*
X49682888Y-93200297D01*
X49942614Y-93454777D01*
X50897392Y-92500000D01*
X53366608Y-92500000D01*
X54321386Y-93454777D01*
X54581112Y-93200297D01*
X54629784Y-92933326D01*
X54682888Y-93200297D01*
X54942614Y-93454777D01*
X55897392Y-92500000D01*
X58366608Y-92500000D01*
X59321386Y-93454777D01*
X59581112Y-93200297D01*
X59629784Y-92933326D01*
X59682888Y-93200297D01*
X59942614Y-93454777D01*
X60897392Y-92500000D01*
X63366608Y-92500000D01*
X64321386Y-93454777D01*
X64581112Y-93200297D01*
X64670674Y-92709043D01*
X64662676Y-92209755D01*
X64581112Y-91799703D01*
X64321386Y-91545223D01*
X63366608Y-92500000D01*
X60897392Y-92500000D01*
X59942614Y-91545223D01*
X59682888Y-91799703D01*
X59634216Y-92066674D01*
X59581112Y-91799703D01*
X59321386Y-91545223D01*
X58366608Y-92500000D01*
X55897392Y-92500000D01*
X54942614Y-91545223D01*
X54682888Y-91799703D01*
X54634216Y-92066674D01*
X54581112Y-91799703D01*
X54321386Y-91545223D01*
X53366608Y-92500000D01*
X50897392Y-92500000D01*
X49942614Y-91545223D01*
X49682888Y-91799703D01*
X49593326Y-92290957D01*
X49462000Y-92290957D01*
X49462000Y-90310614D01*
X51177223Y-90310614D01*
X52132000Y-91265392D01*
X53086777Y-90310614D01*
X56177223Y-90310614D01*
X57132000Y-91265392D01*
X58086777Y-90310614D01*
X61177223Y-90310614D01*
X62132000Y-91265392D01*
X62497391Y-90900000D01*
X68689928Y-90900000D01*
X68693000Y-91468250D01*
X68851750Y-91627000D01*
X70055000Y-91627000D01*
X70055000Y-90423750D01*
X69896250Y-90265000D01*
X69328000Y-90261928D01*
X69203518Y-90274188D01*
X69083820Y-90310498D01*
X68973506Y-90369463D01*
X68876815Y-90448815D01*
X68797463Y-90545506D01*
X68738498Y-90655820D01*
X68702188Y-90775518D01*
X68689928Y-90900000D01*
X62497391Y-90900000D01*
X63086777Y-90310614D01*
X62832297Y-90050888D01*
X62341043Y-89961326D01*
X61841755Y-89969324D01*
X61431703Y-90050888D01*
X61177223Y-90310614D01*
X58086777Y-90310614D01*
X57832297Y-90050888D01*
X57341043Y-89961326D01*
X56841755Y-89969324D01*
X56431703Y-90050888D01*
X56177223Y-90310614D01*
X53086777Y-90310614D01*
X52832297Y-90050888D01*
X52341043Y-89961326D01*
X51841755Y-89969324D01*
X51431703Y-90050888D01*
X51177223Y-90310614D01*
X49462000Y-90310614D01*
X49462000Y-87589386D01*
X51177223Y-87589386D01*
X51431703Y-87849112D01*
X51922957Y-87938674D01*
X52422245Y-87930676D01*
X52832297Y-87849112D01*
X53086777Y-87589386D01*
X56177223Y-87589386D01*
X56431703Y-87849112D01*
X56922957Y-87938674D01*
X57422245Y-87930676D01*
X57832297Y-87849112D01*
X58086777Y-87589386D01*
X61177223Y-87589386D01*
X61431703Y-87849112D01*
X61922957Y-87938674D01*
X62422245Y-87930676D01*
X62832297Y-87849112D01*
X63086777Y-87589386D01*
X62132000Y-86634608D01*
X61177223Y-87589386D01*
X58086777Y-87589386D01*
X57132000Y-86634608D01*
X56177223Y-87589386D01*
X53086777Y-87589386D01*
X52132000Y-86634608D01*
X51177223Y-87589386D01*
X49462000Y-87589386D01*
X49462000Y-85190957D01*
X49593326Y-85190957D01*
X49601324Y-85690245D01*
X49682888Y-86100297D01*
X49942614Y-86354777D01*
X50897392Y-85400000D01*
X53366608Y-85400000D01*
X54321386Y-86354777D01*
X54581112Y-86100297D01*
X54629784Y-85833326D01*
X54682888Y-86100297D01*
X54942614Y-86354777D01*
X55897392Y-85400000D01*
X58366608Y-85400000D01*
X59321386Y-86354777D01*
X59581112Y-86100297D01*
X59629784Y-85833326D01*
X59682888Y-86100297D01*
X59942614Y-86354777D01*
X60897392Y-85400000D01*
X63366608Y-85400000D01*
X64321386Y-86354777D01*
X64581112Y-86100297D01*
X64670674Y-85609043D01*
X64662676Y-85109755D01*
X64581112Y-84699703D01*
X64321386Y-84445223D01*
X63366608Y-85400000D01*
X60897392Y-85400000D01*
X59942614Y-84445223D01*
X59682888Y-84699703D01*
X59634216Y-84966674D01*
X59581112Y-84699703D01*
X59321386Y-84445223D01*
X58366608Y-85400000D01*
X55897392Y-85400000D01*
X54942614Y-84445223D01*
X54682888Y-84699703D01*
X54634216Y-84966674D01*
X54581112Y-84699703D01*
X54321386Y-84445223D01*
X53366608Y-85400000D01*
X50897392Y-85400000D01*
X49942614Y-84445223D01*
X49682888Y-84699703D01*
X49593326Y-85190957D01*
X49462000Y-85190957D01*
X49462000Y-83210614D01*
X51177223Y-83210614D01*
X52132000Y-84165392D01*
X53086777Y-83210614D01*
X56177223Y-83210614D01*
X57132000Y-84165392D01*
X58086777Y-83210614D01*
X61177223Y-83210614D01*
X62132000Y-84165392D01*
X63086777Y-83210614D01*
X62832297Y-82950888D01*
X62341043Y-82861326D01*
X61841755Y-82869324D01*
X61431703Y-82950888D01*
X61177223Y-83210614D01*
X58086777Y-83210614D01*
X57832297Y-82950888D01*
X57341043Y-82861326D01*
X56841755Y-82869324D01*
X56431703Y-82950888D01*
X56177223Y-83210614D01*
X53086777Y-83210614D01*
X52832297Y-82950888D01*
X52341043Y-82861326D01*
X51841755Y-82869324D01*
X51431703Y-82950888D01*
X51177223Y-83210614D01*
X49462000Y-83210614D01*
X49462000Y-82721000D01*
X67065394Y-82721000D01*
X68007000Y-83662606D01*
G37*
G04 #@! TD.AperFunction*
G04 #@! TD*
D26*
G04 #@! TO.N,Net-(D3-Pad2)*
X80707000Y-97378606D02*
X80707000Y-102306417D01*
X80695000Y-102318417D01*
X80695000Y-105021667D01*
X80707000Y-105021667D01*
X80707000Y-106767667D01*
X80695000Y-106767667D01*
X80695000Y-109470917D01*
X80707000Y-109482917D01*
X80707000Y-112126755D01*
X80553750Y-112170163D01*
X80553750Y-112555000D01*
X80680750Y-112555000D01*
X80680750Y-112859142D01*
X80639864Y-112993925D01*
X80618250Y-113213374D01*
X80618250Y-113442627D01*
X80639864Y-113662076D01*
X80680750Y-113796859D01*
X80680750Y-114101000D01*
X80553750Y-114101000D01*
X80553750Y-114485837D01*
X80707000Y-114529245D01*
X80707000Y-114598000D01*
X80709440Y-114622776D01*
X80716667Y-114646601D01*
X80728403Y-114668557D01*
X80744197Y-114687803D01*
X81760197Y-115703803D01*
X81779443Y-115719597D01*
X81801399Y-115731333D01*
X81825224Y-115738560D01*
X81850000Y-115741000D01*
X84337394Y-115741000D01*
X85279000Y-116682606D01*
X85279000Y-122642000D01*
X49462000Y-122642000D01*
X49462000Y-122109386D01*
X51177223Y-122109386D01*
X51431703Y-122369112D01*
X51922957Y-122458674D01*
X52422245Y-122450676D01*
X52832297Y-122369112D01*
X53086777Y-122109386D01*
X56177223Y-122109386D01*
X56431703Y-122369112D01*
X56922957Y-122458674D01*
X57422245Y-122450676D01*
X57832297Y-122369112D01*
X58086777Y-122109386D01*
X61177223Y-122109386D01*
X61431703Y-122369112D01*
X61922957Y-122458674D01*
X62422245Y-122450676D01*
X62832297Y-122369112D01*
X63086777Y-122109386D01*
X62132000Y-121154608D01*
X61177223Y-122109386D01*
X58086777Y-122109386D01*
X57132000Y-121154608D01*
X56177223Y-122109386D01*
X53086777Y-122109386D01*
X52132000Y-121154608D01*
X51177223Y-122109386D01*
X49462000Y-122109386D01*
X49462000Y-119710957D01*
X49593326Y-119710957D01*
X49601324Y-120210245D01*
X49682888Y-120620297D01*
X49942614Y-120874777D01*
X50897392Y-119920000D01*
X53366608Y-119920000D01*
X54321386Y-120874777D01*
X54581112Y-120620297D01*
X54629784Y-120353326D01*
X54682888Y-120620297D01*
X54942614Y-120874777D01*
X55897392Y-119920000D01*
X58366608Y-119920000D01*
X59321386Y-120874777D01*
X59581112Y-120620297D01*
X59629784Y-120353326D01*
X59682888Y-120620297D01*
X59942614Y-120874777D01*
X60897392Y-119920000D01*
X63366608Y-119920000D01*
X64321386Y-120874777D01*
X64581112Y-120620297D01*
X64670674Y-120129043D01*
X64662676Y-119629755D01*
X64581112Y-119219703D01*
X64321386Y-118965223D01*
X63366608Y-119920000D01*
X60897392Y-119920000D01*
X59942614Y-118965223D01*
X59682888Y-119219703D01*
X59634216Y-119486674D01*
X59581112Y-119219703D01*
X59321386Y-118965223D01*
X58366608Y-119920000D01*
X55897392Y-119920000D01*
X54942614Y-118965223D01*
X54682888Y-119219703D01*
X54634216Y-119486674D01*
X54581112Y-119219703D01*
X54321386Y-118965223D01*
X53366608Y-119920000D01*
X50897392Y-119920000D01*
X49942614Y-118965223D01*
X49682888Y-119219703D01*
X49593326Y-119710957D01*
X49462000Y-119710957D01*
X49462000Y-117730614D01*
X51177223Y-117730614D01*
X52132000Y-118685392D01*
X53086777Y-117730614D01*
X56177223Y-117730614D01*
X57132000Y-118685392D01*
X58086777Y-117730614D01*
X61177223Y-117730614D01*
X62132000Y-118685392D01*
X62235519Y-118581872D01*
X66567000Y-118581872D01*
X66567000Y-119022128D01*
X66652890Y-119453925D01*
X66821369Y-119860669D01*
X67065962Y-120226729D01*
X67377271Y-120538038D01*
X67743331Y-120782631D01*
X68150075Y-120951110D01*
X68581872Y-121037000D01*
X69022128Y-121037000D01*
X69453925Y-120951110D01*
X69860669Y-120782631D01*
X69879572Y-120770000D01*
X73769928Y-120770000D01*
X73782188Y-120894482D01*
X73818498Y-121014180D01*
X73877463Y-121124494D01*
X73956815Y-121221185D01*
X74053506Y-121300537D01*
X74163820Y-121359502D01*
X74283518Y-121395812D01*
X74408000Y-121408072D01*
X74976250Y-121405000D01*
X75135000Y-121246250D01*
X75135000Y-120043000D01*
X73931750Y-120043000D01*
X73773000Y-120201750D01*
X73769928Y-120770000D01*
X69879572Y-120770000D01*
X70226729Y-120538038D01*
X70538038Y-120226729D01*
X70782631Y-119860669D01*
X70951110Y-119453925D01*
X71037000Y-119022128D01*
X71037000Y-118581872D01*
X70951110Y-118150075D01*
X70782631Y-117743331D01*
X70666816Y-117570000D01*
X73769928Y-117570000D01*
X73773000Y-118138250D01*
X73931750Y-118297000D01*
X75135000Y-118297000D01*
X75135000Y-117093750D01*
X76881000Y-117093750D01*
X76881000Y-118297000D01*
X76901000Y-118297000D01*
X76901000Y-120043000D01*
X76881000Y-120043000D01*
X76881000Y-121246250D01*
X77039750Y-121405000D01*
X77608000Y-121408072D01*
X77732482Y-121395812D01*
X77852180Y-121359502D01*
X77962494Y-121300537D01*
X78059185Y-121221185D01*
X78138537Y-121124494D01*
X78197502Y-121014180D01*
X78233812Y-120894482D01*
X78246072Y-120770000D01*
X78246011Y-120758778D01*
X78393271Y-120906038D01*
X78759331Y-121150631D01*
X79166075Y-121319110D01*
X79597872Y-121405000D01*
X80038128Y-121405000D01*
X80469925Y-121319110D01*
X80876669Y-121150631D01*
X81242729Y-120906038D01*
X81554038Y-120594729D01*
X81798631Y-120228669D01*
X81967110Y-119821925D01*
X82053000Y-119390128D01*
X82053000Y-118949872D01*
X81967110Y-118518075D01*
X81798631Y-118111331D01*
X81554038Y-117745271D01*
X81242729Y-117433962D01*
X80876669Y-117189369D01*
X80469925Y-117020890D01*
X80038128Y-116935000D01*
X79597872Y-116935000D01*
X79166075Y-117020890D01*
X78759331Y-117189369D01*
X78393271Y-117433962D01*
X78246011Y-117581222D01*
X78246072Y-117570000D01*
X78233812Y-117445518D01*
X78197502Y-117325820D01*
X78138537Y-117215506D01*
X78059185Y-117118815D01*
X77962494Y-117039463D01*
X77852180Y-116980498D01*
X77732482Y-116944188D01*
X77608000Y-116931928D01*
X77039750Y-116935000D01*
X76881000Y-117093750D01*
X75135000Y-117093750D01*
X74976250Y-116935000D01*
X74408000Y-116931928D01*
X74283518Y-116944188D01*
X74163820Y-116980498D01*
X74053506Y-117039463D01*
X73956815Y-117118815D01*
X73877463Y-117215506D01*
X73818498Y-117325820D01*
X73782188Y-117445518D01*
X73769928Y-117570000D01*
X70666816Y-117570000D01*
X70538038Y-117377271D01*
X70226729Y-117065962D01*
X69860669Y-116821369D01*
X69453925Y-116652890D01*
X69022128Y-116567000D01*
X68581872Y-116567000D01*
X68150075Y-116652890D01*
X67743331Y-116821369D01*
X67377271Y-117065962D01*
X67065962Y-117377271D01*
X66821369Y-117743331D01*
X66652890Y-118150075D01*
X66567000Y-118581872D01*
X62235519Y-118581872D01*
X63086777Y-117730614D01*
X62832297Y-117470888D01*
X62341043Y-117381326D01*
X61841755Y-117389324D01*
X61431703Y-117470888D01*
X61177223Y-117730614D01*
X58086777Y-117730614D01*
X57832297Y-117470888D01*
X57341043Y-117381326D01*
X56841755Y-117389324D01*
X56431703Y-117470888D01*
X56177223Y-117730614D01*
X53086777Y-117730614D01*
X52832297Y-117470888D01*
X52341043Y-117381326D01*
X51841755Y-117389324D01*
X51431703Y-117470888D01*
X51177223Y-117730614D01*
X49462000Y-117730614D01*
X49462000Y-115009386D01*
X51177223Y-115009386D01*
X51431703Y-115269112D01*
X51922957Y-115358674D01*
X52422245Y-115350676D01*
X52832297Y-115269112D01*
X53086777Y-115009386D01*
X56177223Y-115009386D01*
X56431703Y-115269112D01*
X56922957Y-115358674D01*
X57422245Y-115350676D01*
X57832297Y-115269112D01*
X58086777Y-115009386D01*
X61177223Y-115009386D01*
X61431703Y-115269112D01*
X61922957Y-115358674D01*
X62422245Y-115350676D01*
X62832297Y-115269112D01*
X63086777Y-115009386D01*
X62132000Y-114054608D01*
X61177223Y-115009386D01*
X58086777Y-115009386D01*
X57132000Y-114054608D01*
X56177223Y-115009386D01*
X53086777Y-115009386D01*
X52132000Y-114054608D01*
X51177223Y-115009386D01*
X49462000Y-115009386D01*
X49462000Y-112610957D01*
X49593326Y-112610957D01*
X49601324Y-113110245D01*
X49682888Y-113520297D01*
X49942614Y-113774777D01*
X50897392Y-112820000D01*
X53366608Y-112820000D01*
X54321386Y-113774777D01*
X54581112Y-113520297D01*
X54629784Y-113253326D01*
X54682888Y-113520297D01*
X54942614Y-113774777D01*
X55897392Y-112820000D01*
X58366608Y-112820000D01*
X59321386Y-113774777D01*
X59581112Y-113520297D01*
X59629784Y-113253326D01*
X59682888Y-113520297D01*
X59942614Y-113774777D01*
X60897392Y-112820000D01*
X63366608Y-112820000D01*
X64321386Y-113774777D01*
X64581112Y-113520297D01*
X64670674Y-113029043D01*
X64662676Y-112529755D01*
X64581112Y-112119703D01*
X64321386Y-111865223D01*
X63366608Y-112820000D01*
X60897392Y-112820000D01*
X59942614Y-111865223D01*
X59682888Y-112119703D01*
X59634216Y-112386674D01*
X59581112Y-112119703D01*
X59321386Y-111865223D01*
X58366608Y-112820000D01*
X55897392Y-112820000D01*
X54942614Y-111865223D01*
X54682888Y-112119703D01*
X54634216Y-112386674D01*
X54581112Y-112119703D01*
X54321386Y-111865223D01*
X53366608Y-112820000D01*
X50897392Y-112820000D01*
X49942614Y-111865223D01*
X49682888Y-112119703D01*
X49593326Y-112610957D01*
X49462000Y-112610957D01*
X49462000Y-110630614D01*
X51177223Y-110630614D01*
X52132000Y-111585392D01*
X53086777Y-110630614D01*
X56177223Y-110630614D01*
X57132000Y-111585392D01*
X58086777Y-110630614D01*
X61177223Y-110630614D01*
X62132000Y-111585392D01*
X63086777Y-110630614D01*
X62832297Y-110370888D01*
X62341043Y-110281326D01*
X61841755Y-110289324D01*
X61431703Y-110370888D01*
X61177223Y-110630614D01*
X58086777Y-110630614D01*
X57832297Y-110370888D01*
X57341043Y-110281326D01*
X56841755Y-110289324D01*
X56431703Y-110370888D01*
X56177223Y-110630614D01*
X53086777Y-110630614D01*
X52832297Y-110370888D01*
X52341043Y-110281326D01*
X51841755Y-110289324D01*
X51431703Y-110370888D01*
X51177223Y-110630614D01*
X49462000Y-110630614D01*
X49462000Y-110153000D01*
X66448928Y-110153000D01*
X66464286Y-110171714D01*
X66526686Y-110222925D01*
X67937079Y-111633318D01*
X67988286Y-111695714D01*
X68237248Y-111900031D01*
X68521285Y-112051852D01*
X68536657Y-112056515D01*
X68522713Y-112073506D01*
X68463748Y-112183820D01*
X68427438Y-112303518D01*
X68415178Y-112428000D01*
X68415178Y-114228000D01*
X68427438Y-114352482D01*
X68463748Y-114472180D01*
X68522713Y-114582494D01*
X68602065Y-114679185D01*
X68698756Y-114758537D01*
X68809070Y-114817502D01*
X68928768Y-114853812D01*
X69053250Y-114866072D01*
X70770750Y-114866072D01*
X70895232Y-114853812D01*
X71014930Y-114817502D01*
X71125244Y-114758537D01*
X71221935Y-114679185D01*
X71301287Y-114582494D01*
X71332025Y-114524989D01*
X71470250Y-114485837D01*
X71470250Y-114101000D01*
X71408822Y-114101000D01*
X71408822Y-112555000D01*
X71470250Y-112555000D01*
X71470250Y-112435000D01*
X72294762Y-112435000D01*
X72857000Y-112997239D01*
X72857000Y-113408321D01*
X72880657Y-113648515D01*
X72974148Y-113956714D01*
X73051271Y-114101000D01*
X72933750Y-114101000D01*
X72933750Y-114485837D01*
X73128456Y-114540987D01*
X73159587Y-114502481D01*
X73257807Y-114401398D01*
X73330286Y-114489714D01*
X73579248Y-114694031D01*
X73863285Y-114845852D01*
X74171484Y-114939343D01*
X74492000Y-114970911D01*
X74812515Y-114939343D01*
X75120714Y-114845852D01*
X75404751Y-114694031D01*
X75627000Y-114511637D01*
X75627000Y-114598000D01*
X75629440Y-114622776D01*
X75636667Y-114646601D01*
X75648403Y-114668557D01*
X75664197Y-114687803D01*
X75683443Y-114703597D01*
X75705399Y-114715333D01*
X75729224Y-114722560D01*
X75754000Y-114725000D01*
X76262000Y-114725000D01*
X76276188Y-114723603D01*
X76318756Y-114758537D01*
X76429070Y-114817502D01*
X76548768Y-114853812D01*
X76673250Y-114866072D01*
X78390750Y-114866072D01*
X78515232Y-114853812D01*
X78634930Y-114817502D01*
X78745244Y-114758537D01*
X78841935Y-114679185D01*
X78921287Y-114582494D01*
X78952025Y-114524989D01*
X79090250Y-114485837D01*
X79090250Y-114101000D01*
X79028822Y-114101000D01*
X79028822Y-112555000D01*
X79090250Y-112555000D01*
X79090250Y-112170163D01*
X78952025Y-112131011D01*
X78921287Y-112073506D01*
X78841935Y-111976815D01*
X78745244Y-111897463D01*
X78634930Y-111838498D01*
X78515232Y-111802188D01*
X78390750Y-111789928D01*
X76673250Y-111789928D01*
X76548768Y-111802188D01*
X76429070Y-111838498D01*
X76318756Y-111897463D01*
X76276188Y-111932397D01*
X76262000Y-111931000D01*
X76082569Y-111931000D01*
X76009852Y-111691285D01*
X75858031Y-111407248D01*
X75653714Y-111158286D01*
X75591318Y-111107079D01*
X74115395Y-109631157D01*
X75052000Y-109632739D01*
X75176482Y-109620479D01*
X75296180Y-109584169D01*
X75406494Y-109525204D01*
X75503185Y-109445852D01*
X75582537Y-109349161D01*
X75641502Y-109238847D01*
X75677812Y-109119149D01*
X75690072Y-108994667D01*
X76333928Y-108994667D01*
X76346188Y-109119149D01*
X76382498Y-109238847D01*
X76441463Y-109349161D01*
X76520815Y-109445852D01*
X76617506Y-109525204D01*
X76727820Y-109584169D01*
X76847518Y-109620479D01*
X76972000Y-109632739D01*
X78790250Y-109629667D01*
X78949000Y-109470917D01*
X78949000Y-106767667D01*
X76495750Y-106767667D01*
X76337000Y-106926417D01*
X76333928Y-108994667D01*
X75690072Y-108994667D01*
X75687000Y-106926417D01*
X75528250Y-106767667D01*
X73075000Y-106767667D01*
X73075000Y-106787667D01*
X71329000Y-106787667D01*
X71329000Y-106767667D01*
X71309000Y-106767667D01*
X71309000Y-105021667D01*
X71329000Y-105021667D01*
X71329000Y-102318417D01*
X73075000Y-102318417D01*
X73075000Y-105021667D01*
X75528250Y-105021667D01*
X75687000Y-104862917D01*
X75690072Y-102794667D01*
X76333928Y-102794667D01*
X76337000Y-104862917D01*
X76495750Y-105021667D01*
X78949000Y-105021667D01*
X78949000Y-102318417D01*
X78790250Y-102159667D01*
X76972000Y-102156595D01*
X76847518Y-102168855D01*
X76727820Y-102205165D01*
X76617506Y-102264130D01*
X76520815Y-102343482D01*
X76441463Y-102440173D01*
X76382498Y-102550487D01*
X76346188Y-102670185D01*
X76333928Y-102794667D01*
X75690072Y-102794667D01*
X75677812Y-102670185D01*
X75641502Y-102550487D01*
X75582537Y-102440173D01*
X75503185Y-102343482D01*
X75406494Y-102264130D01*
X75296180Y-102205165D01*
X75176482Y-102168855D01*
X75052000Y-102156595D01*
X73233750Y-102159667D01*
X73075000Y-102318417D01*
X71329000Y-102318417D01*
X71309000Y-102298417D01*
X71309000Y-101950606D01*
X71917534Y-101342072D01*
X72528000Y-101342072D01*
X72652482Y-101329812D01*
X72772180Y-101293502D01*
X72882494Y-101234537D01*
X72979185Y-101155185D01*
X73058537Y-101058494D01*
X73084993Y-101009000D01*
X73214000Y-101009000D01*
X73238776Y-101006560D01*
X73262601Y-100999333D01*
X73284557Y-100987597D01*
X73303803Y-100971803D01*
X73396957Y-100878649D01*
X73553888Y-100999575D01*
X73865000Y-101002723D01*
X73865000Y-99977000D01*
X75611000Y-99977000D01*
X75611000Y-101002723D01*
X75922112Y-100999575D01*
X76269168Y-100732143D01*
X76557382Y-100402143D01*
X76633551Y-100288108D01*
X76621795Y-99977000D01*
X75611000Y-99977000D01*
X73865000Y-99977000D01*
X73849000Y-99977000D01*
X73849000Y-98231000D01*
X73865000Y-98231000D01*
X75611000Y-98231000D01*
X76621795Y-98231000D01*
X76633551Y-97919892D01*
X76557382Y-97805857D01*
X76269168Y-97475857D01*
X75922112Y-97208425D01*
X75611000Y-97205277D01*
X75611000Y-98231000D01*
X73865000Y-98231000D01*
X73865000Y-97362606D01*
X74790606Y-96437000D01*
X79765394Y-96437000D01*
X80707000Y-97378606D01*
G04 #@! TA.AperFunction,Conductor*
D27*
G36*
X80707000Y-97378606D02*
G01*
X80707000Y-102306417D01*
X80695000Y-102318417D01*
X80695000Y-105021667D01*
X80707000Y-105021667D01*
X80707000Y-106767667D01*
X80695000Y-106767667D01*
X80695000Y-109470917D01*
X80707000Y-109482917D01*
X80707000Y-112126755D01*
X80553750Y-112170163D01*
X80553750Y-112555000D01*
X80680750Y-112555000D01*
X80680750Y-112859142D01*
X80639864Y-112993925D01*
X80618250Y-113213374D01*
X80618250Y-113442627D01*
X80639864Y-113662076D01*
X80680750Y-113796859D01*
X80680750Y-114101000D01*
X80553750Y-114101000D01*
X80553750Y-114485837D01*
X80707000Y-114529245D01*
X80707000Y-114598000D01*
X80709440Y-114622776D01*
X80716667Y-114646601D01*
X80728403Y-114668557D01*
X80744197Y-114687803D01*
X81760197Y-115703803D01*
X81779443Y-115719597D01*
X81801399Y-115731333D01*
X81825224Y-115738560D01*
X81850000Y-115741000D01*
X84337394Y-115741000D01*
X85279000Y-116682606D01*
X85279000Y-122642000D01*
X49462000Y-122642000D01*
X49462000Y-122109386D01*
X51177223Y-122109386D01*
X51431703Y-122369112D01*
X51922957Y-122458674D01*
X52422245Y-122450676D01*
X52832297Y-122369112D01*
X53086777Y-122109386D01*
X56177223Y-122109386D01*
X56431703Y-122369112D01*
X56922957Y-122458674D01*
X57422245Y-122450676D01*
X57832297Y-122369112D01*
X58086777Y-122109386D01*
X61177223Y-122109386D01*
X61431703Y-122369112D01*
X61922957Y-122458674D01*
X62422245Y-122450676D01*
X62832297Y-122369112D01*
X63086777Y-122109386D01*
X62132000Y-121154608D01*
X61177223Y-122109386D01*
X58086777Y-122109386D01*
X57132000Y-121154608D01*
X56177223Y-122109386D01*
X53086777Y-122109386D01*
X52132000Y-121154608D01*
X51177223Y-122109386D01*
X49462000Y-122109386D01*
X49462000Y-119710957D01*
X49593326Y-119710957D01*
X49601324Y-120210245D01*
X49682888Y-120620297D01*
X49942614Y-120874777D01*
X50897392Y-119920000D01*
X53366608Y-119920000D01*
X54321386Y-120874777D01*
X54581112Y-120620297D01*
X54629784Y-120353326D01*
X54682888Y-120620297D01*
X54942614Y-120874777D01*
X55897392Y-119920000D01*
X58366608Y-119920000D01*
X59321386Y-120874777D01*
X59581112Y-120620297D01*
X59629784Y-120353326D01*
X59682888Y-120620297D01*
X59942614Y-120874777D01*
X60897392Y-119920000D01*
X63366608Y-119920000D01*
X64321386Y-120874777D01*
X64581112Y-120620297D01*
X64670674Y-120129043D01*
X64662676Y-119629755D01*
X64581112Y-119219703D01*
X64321386Y-118965223D01*
X63366608Y-119920000D01*
X60897392Y-119920000D01*
X59942614Y-118965223D01*
X59682888Y-119219703D01*
X59634216Y-119486674D01*
X59581112Y-119219703D01*
X59321386Y-118965223D01*
X58366608Y-119920000D01*
X55897392Y-119920000D01*
X54942614Y-118965223D01*
X54682888Y-119219703D01*
X54634216Y-119486674D01*
X54581112Y-119219703D01*
X54321386Y-118965223D01*
X53366608Y-119920000D01*
X50897392Y-119920000D01*
X49942614Y-118965223D01*
X49682888Y-119219703D01*
X49593326Y-119710957D01*
X49462000Y-119710957D01*
X49462000Y-117730614D01*
X51177223Y-117730614D01*
X52132000Y-118685392D01*
X53086777Y-117730614D01*
X56177223Y-117730614D01*
X57132000Y-118685392D01*
X58086777Y-117730614D01*
X61177223Y-117730614D01*
X62132000Y-118685392D01*
X62235519Y-118581872D01*
X66567000Y-118581872D01*
X66567000Y-119022128D01*
X66652890Y-119453925D01*
X66821369Y-119860669D01*
X67065962Y-120226729D01*
X67377271Y-120538038D01*
X67743331Y-120782631D01*
X68150075Y-120951110D01*
X68581872Y-121037000D01*
X69022128Y-121037000D01*
X69453925Y-120951110D01*
X69860669Y-120782631D01*
X69879572Y-120770000D01*
X73769928Y-120770000D01*
X73782188Y-120894482D01*
X73818498Y-121014180D01*
X73877463Y-121124494D01*
X73956815Y-121221185D01*
X74053506Y-121300537D01*
X74163820Y-121359502D01*
X74283518Y-121395812D01*
X74408000Y-121408072D01*
X74976250Y-121405000D01*
X75135000Y-121246250D01*
X75135000Y-120043000D01*
X73931750Y-120043000D01*
X73773000Y-120201750D01*
X73769928Y-120770000D01*
X69879572Y-120770000D01*
X70226729Y-120538038D01*
X70538038Y-120226729D01*
X70782631Y-119860669D01*
X70951110Y-119453925D01*
X71037000Y-119022128D01*
X71037000Y-118581872D01*
X70951110Y-118150075D01*
X70782631Y-117743331D01*
X70666816Y-117570000D01*
X73769928Y-117570000D01*
X73773000Y-118138250D01*
X73931750Y-118297000D01*
X75135000Y-118297000D01*
X75135000Y-117093750D01*
X76881000Y-117093750D01*
X76881000Y-118297000D01*
X76901000Y-118297000D01*
X76901000Y-120043000D01*
X76881000Y-120043000D01*
X76881000Y-121246250D01*
X77039750Y-121405000D01*
X77608000Y-121408072D01*
X77732482Y-121395812D01*
X77852180Y-121359502D01*
X77962494Y-121300537D01*
X78059185Y-121221185D01*
X78138537Y-121124494D01*
X78197502Y-121014180D01*
X78233812Y-120894482D01*
X78246072Y-120770000D01*
X78246011Y-120758778D01*
X78393271Y-120906038D01*
X78759331Y-121150631D01*
X79166075Y-121319110D01*
X79597872Y-121405000D01*
X80038128Y-121405000D01*
X80469925Y-121319110D01*
X80876669Y-121150631D01*
X81242729Y-120906038D01*
X81554038Y-120594729D01*
X81798631Y-120228669D01*
X81967110Y-119821925D01*
X82053000Y-119390128D01*
X82053000Y-118949872D01*
X81967110Y-118518075D01*
X81798631Y-118111331D01*
X81554038Y-117745271D01*
X81242729Y-117433962D01*
X80876669Y-117189369D01*
X80469925Y-117020890D01*
X80038128Y-116935000D01*
X79597872Y-116935000D01*
X79166075Y-117020890D01*
X78759331Y-117189369D01*
X78393271Y-117433962D01*
X78246011Y-117581222D01*
X78246072Y-117570000D01*
X78233812Y-117445518D01*
X78197502Y-117325820D01*
X78138537Y-117215506D01*
X78059185Y-117118815D01*
X77962494Y-117039463D01*
X77852180Y-116980498D01*
X77732482Y-116944188D01*
X77608000Y-116931928D01*
X77039750Y-116935000D01*
X76881000Y-117093750D01*
X75135000Y-117093750D01*
X74976250Y-116935000D01*
X74408000Y-116931928D01*
X74283518Y-116944188D01*
X74163820Y-116980498D01*
X74053506Y-117039463D01*
X73956815Y-117118815D01*
X73877463Y-117215506D01*
X73818498Y-117325820D01*
X73782188Y-117445518D01*
X73769928Y-117570000D01*
X70666816Y-117570000D01*
X70538038Y-117377271D01*
X70226729Y-117065962D01*
X69860669Y-116821369D01*
X69453925Y-116652890D01*
X69022128Y-116567000D01*
X68581872Y-116567000D01*
X68150075Y-116652890D01*
X67743331Y-116821369D01*
X67377271Y-117065962D01*
X67065962Y-117377271D01*
X66821369Y-117743331D01*
X66652890Y-118150075D01*
X66567000Y-118581872D01*
X62235519Y-118581872D01*
X63086777Y-117730614D01*
X62832297Y-117470888D01*
X62341043Y-117381326D01*
X61841755Y-117389324D01*
X61431703Y-117470888D01*
X61177223Y-117730614D01*
X58086777Y-117730614D01*
X57832297Y-117470888D01*
X57341043Y-117381326D01*
X56841755Y-117389324D01*
X56431703Y-117470888D01*
X56177223Y-117730614D01*
X53086777Y-117730614D01*
X52832297Y-117470888D01*
X52341043Y-117381326D01*
X51841755Y-117389324D01*
X51431703Y-117470888D01*
X51177223Y-117730614D01*
X49462000Y-117730614D01*
X49462000Y-115009386D01*
X51177223Y-115009386D01*
X51431703Y-115269112D01*
X51922957Y-115358674D01*
X52422245Y-115350676D01*
X52832297Y-115269112D01*
X53086777Y-115009386D01*
X56177223Y-115009386D01*
X56431703Y-115269112D01*
X56922957Y-115358674D01*
X57422245Y-115350676D01*
X57832297Y-115269112D01*
X58086777Y-115009386D01*
X61177223Y-115009386D01*
X61431703Y-115269112D01*
X61922957Y-115358674D01*
X62422245Y-115350676D01*
X62832297Y-115269112D01*
X63086777Y-115009386D01*
X62132000Y-114054608D01*
X61177223Y-115009386D01*
X58086777Y-115009386D01*
X57132000Y-114054608D01*
X56177223Y-115009386D01*
X53086777Y-115009386D01*
X52132000Y-114054608D01*
X51177223Y-115009386D01*
X49462000Y-115009386D01*
X49462000Y-112610957D01*
X49593326Y-112610957D01*
X49601324Y-113110245D01*
X49682888Y-113520297D01*
X49942614Y-113774777D01*
X50897392Y-112820000D01*
X53366608Y-112820000D01*
X54321386Y-113774777D01*
X54581112Y-113520297D01*
X54629784Y-113253326D01*
X54682888Y-113520297D01*
X54942614Y-113774777D01*
X55897392Y-112820000D01*
X58366608Y-112820000D01*
X59321386Y-113774777D01*
X59581112Y-113520297D01*
X59629784Y-113253326D01*
X59682888Y-113520297D01*
X59942614Y-113774777D01*
X60897392Y-112820000D01*
X63366608Y-112820000D01*
X64321386Y-113774777D01*
X64581112Y-113520297D01*
X64670674Y-113029043D01*
X64662676Y-112529755D01*
X64581112Y-112119703D01*
X64321386Y-111865223D01*
X63366608Y-112820000D01*
X60897392Y-112820000D01*
X59942614Y-111865223D01*
X59682888Y-112119703D01*
X59634216Y-112386674D01*
X59581112Y-112119703D01*
X59321386Y-111865223D01*
X58366608Y-112820000D01*
X55897392Y-112820000D01*
X54942614Y-111865223D01*
X54682888Y-112119703D01*
X54634216Y-112386674D01*
X54581112Y-112119703D01*
X54321386Y-111865223D01*
X53366608Y-112820000D01*
X50897392Y-112820000D01*
X49942614Y-111865223D01*
X49682888Y-112119703D01*
X49593326Y-112610957D01*
X49462000Y-112610957D01*
X49462000Y-110630614D01*
X51177223Y-110630614D01*
X52132000Y-111585392D01*
X53086777Y-110630614D01*
X56177223Y-110630614D01*
X57132000Y-111585392D01*
X58086777Y-110630614D01*
X61177223Y-110630614D01*
X62132000Y-111585392D01*
X63086777Y-110630614D01*
X62832297Y-110370888D01*
X62341043Y-110281326D01*
X61841755Y-110289324D01*
X61431703Y-110370888D01*
X61177223Y-110630614D01*
X58086777Y-110630614D01*
X57832297Y-110370888D01*
X57341043Y-110281326D01*
X56841755Y-110289324D01*
X56431703Y-110370888D01*
X56177223Y-110630614D01*
X53086777Y-110630614D01*
X52832297Y-110370888D01*
X52341043Y-110281326D01*
X51841755Y-110289324D01*
X51431703Y-110370888D01*
X51177223Y-110630614D01*
X49462000Y-110630614D01*
X49462000Y-110153000D01*
X66448928Y-110153000D01*
X66464286Y-110171714D01*
X66526686Y-110222925D01*
X67937079Y-111633318D01*
X67988286Y-111695714D01*
X68237248Y-111900031D01*
X68521285Y-112051852D01*
X68536657Y-112056515D01*
X68522713Y-112073506D01*
X68463748Y-112183820D01*
X68427438Y-112303518D01*
X68415178Y-112428000D01*
X68415178Y-114228000D01*
X68427438Y-114352482D01*
X68463748Y-114472180D01*
X68522713Y-114582494D01*
X68602065Y-114679185D01*
X68698756Y-114758537D01*
X68809070Y-114817502D01*
X68928768Y-114853812D01*
X69053250Y-114866072D01*
X70770750Y-114866072D01*
X70895232Y-114853812D01*
X71014930Y-114817502D01*
X71125244Y-114758537D01*
X71221935Y-114679185D01*
X71301287Y-114582494D01*
X71332025Y-114524989D01*
X71470250Y-114485837D01*
X71470250Y-114101000D01*
X71408822Y-114101000D01*
X71408822Y-112555000D01*
X71470250Y-112555000D01*
X71470250Y-112435000D01*
X72294762Y-112435000D01*
X72857000Y-112997239D01*
X72857000Y-113408321D01*
X72880657Y-113648515D01*
X72974148Y-113956714D01*
X73051271Y-114101000D01*
X72933750Y-114101000D01*
X72933750Y-114485837D01*
X73128456Y-114540987D01*
X73159587Y-114502481D01*
X73257807Y-114401398D01*
X73330286Y-114489714D01*
X73579248Y-114694031D01*
X73863285Y-114845852D01*
X74171484Y-114939343D01*
X74492000Y-114970911D01*
X74812515Y-114939343D01*
X75120714Y-114845852D01*
X75404751Y-114694031D01*
X75627000Y-114511637D01*
X75627000Y-114598000D01*
X75629440Y-114622776D01*
X75636667Y-114646601D01*
X75648403Y-114668557D01*
X75664197Y-114687803D01*
X75683443Y-114703597D01*
X75705399Y-114715333D01*
X75729224Y-114722560D01*
X75754000Y-114725000D01*
X76262000Y-114725000D01*
X76276188Y-114723603D01*
X76318756Y-114758537D01*
X76429070Y-114817502D01*
X76548768Y-114853812D01*
X76673250Y-114866072D01*
X78390750Y-114866072D01*
X78515232Y-114853812D01*
X78634930Y-114817502D01*
X78745244Y-114758537D01*
X78841935Y-114679185D01*
X78921287Y-114582494D01*
X78952025Y-114524989D01*
X79090250Y-114485837D01*
X79090250Y-114101000D01*
X79028822Y-114101000D01*
X79028822Y-112555000D01*
X79090250Y-112555000D01*
X79090250Y-112170163D01*
X78952025Y-112131011D01*
X78921287Y-112073506D01*
X78841935Y-111976815D01*
X78745244Y-111897463D01*
X78634930Y-111838498D01*
X78515232Y-111802188D01*
X78390750Y-111789928D01*
X76673250Y-111789928D01*
X76548768Y-111802188D01*
X76429070Y-111838498D01*
X76318756Y-111897463D01*
X76276188Y-111932397D01*
X76262000Y-111931000D01*
X76082569Y-111931000D01*
X76009852Y-111691285D01*
X75858031Y-111407248D01*
X75653714Y-111158286D01*
X75591318Y-111107079D01*
X74115395Y-109631157D01*
X75052000Y-109632739D01*
X75176482Y-109620479D01*
X75296180Y-109584169D01*
X75406494Y-109525204D01*
X75503185Y-109445852D01*
X75582537Y-109349161D01*
X75641502Y-109238847D01*
X75677812Y-109119149D01*
X75690072Y-108994667D01*
X76333928Y-108994667D01*
X76346188Y-109119149D01*
X76382498Y-109238847D01*
X76441463Y-109349161D01*
X76520815Y-109445852D01*
X76617506Y-109525204D01*
X76727820Y-109584169D01*
X76847518Y-109620479D01*
X76972000Y-109632739D01*
X78790250Y-109629667D01*
X78949000Y-109470917D01*
X78949000Y-106767667D01*
X76495750Y-106767667D01*
X76337000Y-106926417D01*
X76333928Y-108994667D01*
X75690072Y-108994667D01*
X75687000Y-106926417D01*
X75528250Y-106767667D01*
X73075000Y-106767667D01*
X73075000Y-106787667D01*
X71329000Y-106787667D01*
X71329000Y-106767667D01*
X71309000Y-106767667D01*
X71309000Y-105021667D01*
X71329000Y-105021667D01*
X71329000Y-102318417D01*
X73075000Y-102318417D01*
X73075000Y-105021667D01*
X75528250Y-105021667D01*
X75687000Y-104862917D01*
X75690072Y-102794667D01*
X76333928Y-102794667D01*
X76337000Y-104862917D01*
X76495750Y-105021667D01*
X78949000Y-105021667D01*
X78949000Y-102318417D01*
X78790250Y-102159667D01*
X76972000Y-102156595D01*
X76847518Y-102168855D01*
X76727820Y-102205165D01*
X76617506Y-102264130D01*
X76520815Y-102343482D01*
X76441463Y-102440173D01*
X76382498Y-102550487D01*
X76346188Y-102670185D01*
X76333928Y-102794667D01*
X75690072Y-102794667D01*
X75677812Y-102670185D01*
X75641502Y-102550487D01*
X75582537Y-102440173D01*
X75503185Y-102343482D01*
X75406494Y-102264130D01*
X75296180Y-102205165D01*
X75176482Y-102168855D01*
X75052000Y-102156595D01*
X73233750Y-102159667D01*
X73075000Y-102318417D01*
X71329000Y-102318417D01*
X71309000Y-102298417D01*
X71309000Y-101950606D01*
X71917534Y-101342072D01*
X72528000Y-101342072D01*
X72652482Y-101329812D01*
X72772180Y-101293502D01*
X72882494Y-101234537D01*
X72979185Y-101155185D01*
X73058537Y-101058494D01*
X73084993Y-101009000D01*
X73214000Y-101009000D01*
X73238776Y-101006560D01*
X73262601Y-100999333D01*
X73284557Y-100987597D01*
X73303803Y-100971803D01*
X73396957Y-100878649D01*
X73553888Y-100999575D01*
X73865000Y-101002723D01*
X73865000Y-99977000D01*
X75611000Y-99977000D01*
X75611000Y-101002723D01*
X75922112Y-100999575D01*
X76269168Y-100732143D01*
X76557382Y-100402143D01*
X76633551Y-100288108D01*
X76621795Y-99977000D01*
X75611000Y-99977000D01*
X73865000Y-99977000D01*
X73849000Y-99977000D01*
X73849000Y-98231000D01*
X73865000Y-98231000D01*
X75611000Y-98231000D01*
X76621795Y-98231000D01*
X76633551Y-97919892D01*
X76557382Y-97805857D01*
X76269168Y-97475857D01*
X75922112Y-97208425D01*
X75611000Y-97205277D01*
X75611000Y-98231000D01*
X73865000Y-98231000D01*
X73865000Y-97362606D01*
X74790606Y-96437000D01*
X79765394Y-96437000D01*
X80707000Y-97378606D01*
G37*
G04 #@! TD.AperFunction*
G04 #@! TD*
M02*
