M48
; DRILL file {KiCad (5.1.7)-1} date 12/05/21 21:21:44
; FORMAT={-:-/ absolute / metric / decimal}
; #@! TF.CreationDate,2021-12-05T21:21:44+09:00
; #@! TF.GenerationSoftware,Kicad,Pcbnew,(5.1.7)-1
; #@! TF.FileFunction,Plated,1,2,PTH
FMAT,2
METRIC
T1C0.700
T2C0.800
T3C1.000
T4C1.100
T5C1.600
T6C1.800
%
G90
G05
T1
X95.058Y-107.105
X95.058Y-109.645
X92.772Y-82.086
X92.772Y-84.626
X85.406Y-110.534
X87.946Y-110.534
X100.138Y-102.914
X102.678Y-102.914
X100.138Y-88.69
X102.678Y-88.69
X92.772Y-107.105
X92.772Y-109.645
X95.058Y-82.086
X95.058Y-84.626
X85.406Y-84.626
X87.946Y-84.626
X85.406Y-106.978
X87.946Y-106.978
X85.406Y-81.07
X87.946Y-81.07
T2
X99.63Y-83.102
X99.63Y-85.642
X107.25Y-83.102
X107.25Y-85.642
X99.63Y-105.962
X99.63Y-108.502
X107.25Y-105.962
X107.25Y-108.502
X85.406Y-90.722
X85.406Y-93.262
X85.406Y-95.802
X85.406Y-98.342
X85.406Y-100.882
X92.518Y-90.722
X92.518Y-93.262
X92.518Y-95.802
X92.518Y-98.342
X92.518Y-100.882
T3
X97.344Y-91.992
X97.344Y-94.532
X97.344Y-97.072
X97.344Y-99.612
T4
X92.768Y-79.546
X95.058Y-79.546
X97.348Y-79.546
X69.904Y-78.276
X72.194Y-78.276
X74.484Y-78.276
X69.912Y-113.328
X72.202Y-113.328
X74.492Y-113.328
X77.524Y-78.276
X79.814Y-78.276
X82.104Y-78.276
X77.532Y-113.328
X79.822Y-113.328
X82.112Y-113.328
X92.772Y-112.058
X95.062Y-112.058
X97.352Y-112.058
T5
X70.928Y-99.104
X74.738Y-99.104
X76.008Y-119.17
X79.818Y-119.17
X76.008Y-72.434
X79.818Y-72.434
X70.928Y-92.5
X74.738Y-92.5
T6
X52.132Y-71.684
X52.132Y-78.784
X57.132Y-71.684
X57.132Y-78.784
X62.132Y-71.684
X62.132Y-78.784
X52.132Y-99.104
X52.132Y-106.204
X57.132Y-99.104
X57.132Y-106.204
X62.132Y-99.104
X62.132Y-106.204
X52.132Y-112.82
X52.132Y-119.92
X57.132Y-112.82
X57.132Y-119.92
X62.132Y-112.82
X62.132Y-119.92
X52.132Y-85.4
X52.132Y-92.5
X57.132Y-85.4
X57.132Y-92.5
X62.132Y-85.4
X62.132Y-92.5
T0
M30
