G04 #@! TF.GenerationSoftware,KiCad,Pcbnew,(5.1.7)-1*
G04 #@! TF.CreationDate,2021-12-05T21:20:24+09:00*
G04 #@! TF.ProjectId,DMD-10,444d442d-3130-42e6-9b69-6361645f7063,rev?*
G04 #@! TF.SameCoordinates,Original*
G04 #@! TF.FileFunction,Soldermask,Top*
G04 #@! TF.FilePolarity,Negative*
%FSLAX46Y46*%
G04 Gerber Fmt 4.6, Leading zero omitted, Abs format (unit mm)*
G04 Created by KiCad (PCBNEW (5.1.7)-1) date 2021-12-05 21:20:24*
%MOMM*%
%LPD*%
G01*
G04 APERTURE LIST*
%ADD10C,3.200000*%
%ADD11O,1.600000X1.600000*%
%ADD12R,1.600000X1.600000*%
%ADD13O,1.400000X1.400000*%
%ADD14C,1.400000*%
%ADD15O,1.717500X1.800000*%
%ADD16R,1.717500X1.800000*%
%ADD17R,5.700000X6.200000*%
%ADD18C,3.800000*%
%ADD19O,1.700000X1.700000*%
%ADD20R,1.700000X1.700000*%
%ADD21O,3.200000X3.200000*%
%ADD22R,3.200000X3.200000*%
G04 APERTURE END LIST*
D10*
G04 #@! TO.C,REF\u002A\u002A*
X103802000Y-118802000D03*
G04 #@! TD*
G04 #@! TO.C,REF\u002A\u002A*
X68802000Y-118802000D03*
G04 #@! TD*
G04 #@! TO.C,REF\u002A\u002A*
X68802000Y-72802000D03*
G04 #@! TD*
G04 #@! TO.C,REF\u002A\u002A*
X103802000Y-72802000D03*
G04 #@! TD*
D11*
G04 #@! TO.C,U2*
X99630000Y-108502000D03*
X107250000Y-105962000D03*
X99630000Y-105962000D03*
D12*
X107250000Y-108502000D03*
G04 #@! TD*
D11*
G04 #@! TO.C,U1*
X99630000Y-85642000D03*
X107250000Y-83102000D03*
X99630000Y-83102000D03*
D12*
X107250000Y-85642000D03*
G04 #@! TD*
G04 #@! TO.C,RN1*
X92518000Y-90722000D03*
D11*
X92518000Y-93262000D03*
X92518000Y-95802000D03*
X92518000Y-98342000D03*
X92518000Y-100882000D03*
G04 #@! TD*
G04 #@! TO.C,RN2*
X85406000Y-100882000D03*
X85406000Y-98342000D03*
X85406000Y-95802000D03*
X85406000Y-93262000D03*
D12*
X85406000Y-90722000D03*
G04 #@! TD*
D13*
G04 #@! TO.C,R10*
X85406000Y-110534000D03*
D14*
X87946000Y-110534000D03*
G04 #@! TD*
D13*
G04 #@! TO.C,R9*
X85406000Y-106978000D03*
D14*
X87946000Y-106978000D03*
G04 #@! TD*
D13*
G04 #@! TO.C,R8*
X85406000Y-81070000D03*
D14*
X87946000Y-81070000D03*
G04 #@! TD*
D13*
G04 #@! TO.C,R7*
X85406000Y-84626000D03*
D14*
X87946000Y-84626000D03*
G04 #@! TD*
D13*
G04 #@! TO.C,R6*
X92772000Y-109645000D03*
D14*
X92772000Y-107105000D03*
G04 #@! TD*
D13*
G04 #@! TO.C,R5*
X92772000Y-84626000D03*
D14*
X92772000Y-82086000D03*
G04 #@! TD*
D13*
G04 #@! TO.C,R4*
X95058000Y-109645000D03*
D14*
X95058000Y-107105000D03*
G04 #@! TD*
D13*
G04 #@! TO.C,R3*
X95058000Y-84626000D03*
D14*
X95058000Y-82086000D03*
G04 #@! TD*
D13*
G04 #@! TO.C,R2*
X100138000Y-102914000D03*
D14*
X102678000Y-102914000D03*
G04 #@! TD*
D13*
G04 #@! TO.C,R1*
X100138000Y-88690000D03*
D14*
X102678000Y-88690000D03*
G04 #@! TD*
D15*
G04 #@! TO.C,Q6*
X82112000Y-113328000D03*
X79822000Y-113328000D03*
D16*
X77532000Y-113328000D03*
D17*
X79822000Y-105894667D03*
G04 #@! TD*
D15*
G04 #@! TO.C,Q5*
X74492000Y-113328000D03*
X72202000Y-113328000D03*
D16*
X69912000Y-113328000D03*
D17*
X72202000Y-105894667D03*
G04 #@! TD*
D15*
G04 #@! TO.C,Q4*
X77524000Y-78276000D03*
X79814000Y-78276000D03*
D16*
X82104000Y-78276000D03*
D17*
X79814000Y-85709333D03*
G04 #@! TD*
D15*
G04 #@! TO.C,Q3*
X69904000Y-78276000D03*
X72194000Y-78276000D03*
D16*
X74484000Y-78276000D03*
D17*
X72194000Y-85709333D03*
G04 #@! TD*
D15*
G04 #@! TO.C,Q2*
X92772000Y-112058000D03*
X95062000Y-112058000D03*
D16*
X97352000Y-112058000D03*
D17*
X95062000Y-119491333D03*
G04 #@! TD*
D15*
G04 #@! TO.C,Q1*
X97348000Y-79546000D03*
X95058000Y-79546000D03*
D16*
X92768000Y-79546000D03*
D17*
X95058000Y-72112667D03*
G04 #@! TD*
D18*
G04 #@! TO.C,J4*
X62132000Y-112820000D03*
X57132000Y-112820000D03*
X52132000Y-112820000D03*
X62132000Y-119920000D03*
X57132000Y-119920000D03*
X52132000Y-119920000D03*
G04 #@! TD*
G04 #@! TO.C,J1*
X62132000Y-71684000D03*
X57132000Y-71684000D03*
X52132000Y-71684000D03*
X62132000Y-78784000D03*
X57132000Y-78784000D03*
X52132000Y-78784000D03*
G04 #@! TD*
D19*
G04 #@! TO.C,J5*
X97344000Y-99612000D03*
X97344000Y-97072000D03*
X97344000Y-94532000D03*
D20*
X97344000Y-91992000D03*
G04 #@! TD*
D18*
G04 #@! TO.C,J3*
X62132000Y-99104000D03*
X57132000Y-99104000D03*
X52132000Y-99104000D03*
X62132000Y-106204000D03*
X57132000Y-106204000D03*
X52132000Y-106204000D03*
G04 #@! TD*
G04 #@! TO.C,J2*
X62132000Y-85400000D03*
X57132000Y-85400000D03*
X52132000Y-85400000D03*
X62132000Y-92500000D03*
X57132000Y-92500000D03*
X52132000Y-92500000D03*
G04 #@! TD*
D21*
G04 #@! TO.C,D4*
X79818000Y-119170000D03*
D22*
X76008000Y-119170000D03*
G04 #@! TD*
D21*
G04 #@! TO.C,D3*
X74738000Y-99104000D03*
D22*
X70928000Y-99104000D03*
G04 #@! TD*
D21*
G04 #@! TO.C,D2*
X79818000Y-72434000D03*
D22*
X76008000Y-72434000D03*
G04 #@! TD*
D21*
G04 #@! TO.C,D1*
X74738000Y-92500000D03*
D22*
X70928000Y-92500000D03*
G04 #@! TD*
M02*
